<svg width="377" height="334" viewBox="0 0 377 334" fill="none" xmlns="http://www.w3.org/2000/svg">
<path d="M198.693 179.001C199.141 178.307 199.73 177.715 200.422 177.265C201.114 176.815 201.893 176.517 202.709 176.389C203.524 176.262 204.357 176.309 205.153 176.526C205.949 176.744 206.69 177.128 207.327 177.652C207.528 177.819 207.718 178 207.893 178.194L230.911 174.836L232.192 157.495C232.291 156.164 232.912 154.927 233.92 154.056C234.929 153.185 236.241 152.75 237.569 152.849C238.897 152.947 240.132 153.57 241.001 154.58C241.871 155.59 242.304 156.905 242.206 158.236C242.204 158.266 242.201 158.297 242.198 158.328L239.955 182.662L239.944 182.716C239.652 183.651 239.067 184.468 238.275 185.043C237.483 185.619 236.528 185.924 235.549 185.912L208.475 185.444C208.37 185.605 208.257 185.76 208.136 185.909C207.612 186.548 206.959 187.068 206.221 187.437C205.482 187.805 204.674 188.013 203.85 188.047C203.026 188.081 202.203 187.94 201.437 187.633C200.671 187.326 199.978 186.861 199.404 186.267C199.287 186.147 199.177 186.024 199.073 185.896C198.292 184.933 197.836 183.748 197.767 182.51C197.699 181.272 198.023 180.044 198.693 179.001Z" fill="#FFB7B7"/>
<path d="M245.1 326.861L238.534 326.861L235.411 301.49L245.101 301.491L245.1 326.861Z" fill="#FFB7B7"/>
<path d="M246.774 333.237L225.605 333.236V332.968C225.606 330.778 226.474 328.679 228.019 327.131C229.564 325.583 231.66 324.713 233.845 324.713H233.845L246.774 324.713L246.774 333.237Z" fill="#2F2E41"/>
<path d="M290.974 320.898L284.76 323.021L273.629 300.019L282.8 296.885L290.974 320.898Z" fill="#FFB7B7"/>
<path d="M294.613 326.39L274.578 333.237L274.491 332.983C273.786 330.911 273.931 328.643 274.895 326.678C275.858 324.713 277.561 323.212 279.63 322.505L279.63 322.505L291.867 318.323L294.613 326.39Z" fill="#2F2E41"/>
<path d="M252.329 105.033C252.329 105.033 245.794 102.871 241.594 111.519C237.393 120.167 230.859 129.68 230.859 129.68L234.593 130.545C234.593 130.545 235.526 124.491 237.86 123.627L236.926 131.41C236.926 131.41 264.931 140.491 277.532 130.545L277.066 127.518C277.066 127.518 278.933 127.951 278.933 130.545L280.333 129.248C280.333 129.248 278.933 126.654 274.732 123.194C271.975 120.924 271.027 116.604 270.702 113.903C270.444 111.617 269.465 109.472 267.908 107.78C265.116 104.783 260.03 101.597 252.329 105.033Z" fill="#2F2E41"/>
<path d="M254.737 135.249C261.329 135.249 266.672 129.895 266.672 123.291C266.672 116.687 261.329 111.334 254.737 111.334C248.146 111.334 242.803 116.687 242.803 123.291C242.803 129.895 248.146 135.249 254.737 135.249Z" fill="#FFB7B7"/>
<path d="M238.825 145.095L236.655 144.37C236.655 144.37 232.315 146.182 232.315 149.443C232.315 152.704 231.592 165.748 231.592 165.748L241.356 166.835L238.825 145.095Z" fill="#8B8B8B"/>
<path d="M277.662 216.366C276.762 215.356 276.254 214.055 276.23 212.701C276.207 211.347 276.669 210.03 277.533 208.988L271.441 157.876C271.382 156.671 271.802 155.491 272.609 154.595C273.417 153.7 274.546 153.162 275.749 153.1C276.952 153.038 278.13 153.457 279.026 154.264C279.921 155.072 280.46 156.202 280.524 157.407C280.525 157.424 280.526 157.44 280.526 157.457L285.976 208.624C286.173 208.822 286.356 209.036 286.521 209.262C286.958 209.868 287.271 210.554 287.444 211.281C287.616 212.008 287.644 212.762 287.526 213.5C287.408 214.238 287.145 214.945 286.754 215.582C286.363 216.218 285.851 216.771 285.246 217.209C285.184 217.254 285.12 217.298 285.056 217.341C284.356 217.805 283.562 218.108 282.732 218.228C281.901 218.349 281.054 218.283 280.252 218.037C279.25 217.733 278.353 217.154 277.662 216.366Z" fill="#FFB7B7"/>
<path d="M272.083 165.748L281.848 164.661C281.848 164.661 281.124 151.617 281.124 148.356C281.124 145.095 276.785 143.283 276.785 143.283L274.615 144.008L272.083 165.748Z" fill="#8B8B8B"/>
<path d="M240.271 183.846C240.271 183.846 231.953 199.083 231.953 217.563C231.953 236.042 231.23 320.83 231.23 320.83C231.23 320.83 242.079 325.903 248.589 319.743L254.376 225.896L277.16 317.931C277.16 317.931 288.009 320.105 293.072 316.482L283.308 252.347C283.308 252.347 279.33 192.199 268.48 187.851C257.63 183.503 240.271 183.846 240.271 183.846Z" fill="#2F2E41"/>
<path d="M241.841 123.367C246.066 120.304 249.486 116.775 251.748 112.578C251.748 112.578 259.502 121.209 264.24 121.641C268.978 122.072 264.671 111.283 264.671 111.283L256.056 109.125L247.871 109.988L241.41 114.304L241.841 123.367Z" fill="#2F2E41"/>
<path d="M266.672 141.109C266.672 141.109 267.016 140.924 246.42 141.675L237.8 144.054L236.655 144.37C236.655 144.37 237.739 166.11 240.633 170.096C243.526 174.082 242.803 176.256 242.079 176.618C241.356 176.981 239.548 176.256 240.633 178.068C241.718 179.879 243.164 178.792 241.718 179.879C240.271 180.966 239.548 184.952 239.548 184.952L271.373 189.3C271.373 189.3 272.458 175.169 275.351 167.922C278.245 160.675 278.968 157.776 278.968 157.776L276.798 143.283L266.672 141.109Z" fill="#8B8B8B"/>
<path d="M206.165 79.3036H204.335V29.0725C204.335 21.362 201.278 13.9673 195.836 8.51515C190.394 3.06301 183.014 2.19657e-05 175.318 9.53685e-06L69.0984 9.53685e-06C61.4026 -1.15923e-05 54.0219 3.06294 48.5801 8.51506C43.1383 13.9672 40.0812 21.3619 40.0811 29.0723V304.644C40.0811 312.355 43.1383 319.75 48.5801 325.202C54.0218 330.654 61.4025 333.717 69.0983 333.717H175.318C179.128 333.717 182.902 332.965 186.422 331.504C189.943 330.043 193.141 327.901 195.836 325.202C198.53 322.502 200.668 319.297 202.126 315.77C203.584 312.243 204.335 308.462 204.335 304.645V115.059H206.165L206.165 79.3036Z" fill="#3F3D56"/>
<path d="M198.159 29.2767V304.443C198.162 307.292 197.604 310.113 196.519 312.746C195.433 315.379 193.84 317.772 191.831 319.788C189.823 321.804 187.437 323.404 184.812 324.496C182.186 325.589 179.371 326.153 176.527 326.155H69.7594C64.0161 326.159 58.5064 323.877 54.4424 319.811C50.3784 315.745 48.093 310.228 48.0889 304.474V29.2767C48.0869 26.4275 48.6451 23.6058 49.7315 20.9727C50.8179 18.3396 52.4114 15.9466 54.4208 13.9305C56.4303 11.9144 58.8164 10.3146 61.443 9.22235C64.0695 8.13015 66.8851 7.56697 69.7289 7.56496H82.7065C82.0689 9.13113 81.8256 10.8304 81.9979 12.513C82.1702 14.1956 82.7529 15.8099 83.6947 17.2137C84.6365 18.6175 85.9085 19.7677 87.3985 20.563C88.8885 21.3582 90.5509 21.774 92.2391 21.7739H153.092C154.781 21.774 156.443 21.3582 157.933 20.563C159.423 19.7677 160.695 18.6175 161.637 17.2137C162.578 15.8099 163.161 14.1956 163.334 12.513C163.506 10.8304 163.263 9.13113 162.625 7.56496H176.489C182.231 7.5598 187.74 9.84028 191.804 13.9047C195.868 17.9691 198.154 23.4846 198.159 29.2377V29.2767L198.159 29.2767Z" fill="white"/>
<path d="M198.159 69.9868V60.6141H184.001V8.90527C181.596 8.01547 179.052 7.56162 176.489 7.56493H174.646V60.6141H125.533V21.7739H116.178V60.6141H75.0168V7.56498H69.7595C68.3844 7.56283 67.0122 7.69308 65.662 7.95394V60.6141H48.089V69.9868H65.662V91.666L48.0892 101.83V112.656L65.662 102.491V166.994H48.089V176.366H65.662V269.624H48.089V278.997H65.662V325.766C67.0122 326.027 68.3844 326.157 69.7595 326.155H75.0168V278.997H116.178V326.155H125.533V278.997H174.646V326.155H176.489C179.052 326.158 181.596 325.705 184.001 324.815V278.997H198.159V269.624H184.001V228.853H198.033V219.48H184.001V176.366H198.159V166.994H184.001V109.821H198.159V100.448H184.001V69.9868L198.159 69.9868ZM103.143 69.9868L103.142 69.9869L75.017 86.2578L75.0168 86.2579V69.9868H103.143ZM75.0168 97.0787L75.017 97.0786L116.178 73.2675V166.994H75.0168V97.0787ZM75.0168 269.624V176.366H116.178V269.624H75.0168ZM174.646 269.624H125.533V228.853H174.646V269.624ZM174.646 219.48H125.533V176.366H174.646V219.48ZM174.646 166.994H125.533V109.821H174.646V166.994ZM174.646 100.448H125.533V69.9868H174.646V100.448Z" fill="#E5E5E5"/>
<path d="M205.985 100.621C205.985 130.385 152.194 196.691 152.194 196.691C152.194 196.691 98.404 130.385 98.404 100.621C98.404 86.328 104.071 72.6202 114.159 62.5133C124.246 52.4065 137.928 46.7285 152.194 46.7285C166.46 46.7285 180.142 52.4065 190.23 62.5133C200.317 72.6202 205.985 86.328 205.985 100.621Z" fill="#8257E6"/>
<path d="M184.001 98.2781C184.001 104.581 182.136 110.742 178.641 115.982C175.146 121.223 170.179 125.307 164.367 127.719C158.555 130.131 152.16 130.762 145.99 129.533C139.82 128.303 134.153 125.268 129.704 120.811C125.256 116.355 122.227 110.677 121 104.495C119.772 98.3134 120.402 91.906 122.81 86.0831C125.217 80.2602 129.294 75.2832 134.524 71.7816C139.755 68.2801 145.904 66.4111 152.195 66.4111C156.37 66.4092 160.504 67.2311 164.362 68.8301C168.22 70.4291 171.726 72.7737 174.679 75.7301C177.633 78.6865 179.976 82.1968 181.576 86.0606C183.175 89.9243 183.999 94.0659 184.001 98.2488V98.2781Z" fill="white"/>
<path d="M152.084 110.858C158.628 110.858 163.934 105.542 163.934 98.9856C163.934 92.4289 158.628 87.1136 152.084 87.1136C145.54 87.1136 140.235 92.4289 140.235 98.9856C140.235 105.542 145.54 110.858 152.084 110.858Z" fill="#8257E6"/>
<path d="M169.281 126.101C164.173 129.355 158.245 131.083 152.192 131.082C146.138 131.081 140.211 129.352 135.104 126.096C136.166 122.376 138.408 119.104 141.492 116.775C144.576 114.445 148.332 113.186 152.194 113.186C156.056 113.187 159.813 114.448 162.896 116.778C165.979 119.108 168.22 122.381 169.281 126.101Z" fill="#8257E6"/>
<path d="M152.194 235.587C160.202 235.587 166.694 229.083 166.694 221.06C166.694 213.036 160.202 206.532 152.194 206.532C144.186 206.532 137.694 213.036 137.694 221.06C137.694 229.083 144.186 235.587 152.194 235.587Z" fill="#8257E6"/>
</svg>
