<svg width="377" height="334" viewBox="0 0 377 334" fill="none" xmlns="http://www.w3.org/2000/svg">
<path d="M233.934 179.001C234.382 178.307 234.972 177.715 235.664 177.265C236.356 176.815 237.135 176.517 237.95 176.389C238.765 176.262 239.598 176.309 240.394 176.526C241.19 176.744 241.931 177.128 242.569 177.652C242.77 177.819 242.959 178 243.135 178.194L266.153 174.836L267.434 157.495C267.532 156.164 268.154 154.927 269.162 154.056C270.17 153.185 271.483 152.75 272.811 152.849C274.138 152.947 275.373 153.57 276.243 154.58C277.112 155.59 277.546 156.905 277.448 158.236C277.445 158.266 277.443 158.297 277.44 158.328L275.196 182.662L275.185 182.716C274.893 183.651 274.308 184.468 273.516 185.043C272.725 185.619 271.769 185.924 270.791 185.912L243.717 185.444C243.612 185.605 243.498 185.76 243.377 185.909C242.853 186.548 242.201 187.068 241.462 187.437C240.724 187.805 239.916 188.013 239.091 188.047C238.267 188.081 237.445 187.94 236.679 187.633C235.912 187.326 235.22 186.861 234.646 186.267C234.529 186.147 234.419 186.024 234.314 185.896C233.534 184.933 233.077 183.748 233.009 182.51C232.941 181.272 233.265 180.044 233.934 179.001V179.001Z" fill="#FFB7B7"/>
<path d="M280.341 326.861L273.776 326.861L270.653 301.49L280.342 301.491L280.341 326.861Z" fill="#FFB7B7"/>
<path d="M282.015 333.237L260.847 333.236V332.968C260.847 330.778 261.715 328.679 263.26 327.131C264.805 325.583 266.901 324.713 269.086 324.713H269.087L282.016 324.713L282.015 333.237Z" fill="#2F2E41"/>
<path d="M326.215 320.898L320.002 323.021L308.871 300.019L318.042 296.885L326.215 320.898Z" fill="#FFB7B7"/>
<path d="M329.854 326.39L309.819 333.237L309.733 332.983C309.028 330.911 309.173 328.643 310.136 326.678C311.1 324.713 312.803 323.212 314.871 322.505L314.872 322.505L327.108 318.323L329.854 326.39Z" fill="#2F2E41"/>
<path d="M287.57 105.033C287.57 105.033 281.036 102.871 276.835 111.519C272.635 120.167 266.1 129.68 266.1 129.68L269.834 130.545C269.834 130.545 270.768 124.491 273.101 123.627L272.168 131.41C272.168 131.41 300.172 140.491 312.774 130.545L312.307 127.518C312.307 127.518 314.174 127.951 314.174 130.545L315.574 129.248C315.574 129.248 314.174 126.654 309.974 123.194C307.216 120.924 306.269 116.604 305.943 113.903C305.685 111.617 304.707 109.472 303.149 107.78C300.358 104.783 295.271 101.597 287.57 105.033Z" fill="#2F2E41"/>
<path d="M289.979 135.249C296.57 135.249 301.913 129.895 301.913 123.291C301.913 116.687 296.57 111.334 289.979 111.334C283.388 111.334 278.044 116.687 278.044 123.291C278.044 129.895 283.388 135.249 289.979 135.249Z" fill="#FFB7B7"/>
<path d="M274.066 145.095L271.896 144.37C271.896 144.37 267.556 146.182 267.556 149.443C267.556 152.704 266.833 165.748 266.833 165.748L276.598 166.835L274.066 145.095Z" fill="#8B8B8B"/>
<path d="M312.904 216.366C312.004 215.356 311.496 214.055 311.472 212.701C311.448 211.347 311.91 210.03 312.774 208.988L306.683 157.876C306.623 156.671 307.043 155.491 307.851 154.595C308.659 153.7 309.788 153.162 310.991 153.1C312.194 153.038 313.372 153.457 314.267 154.264C315.162 155.072 315.701 156.202 315.766 157.407C315.766 157.424 315.767 157.44 315.768 157.457L321.217 208.624C321.415 208.822 321.597 209.036 321.762 209.262C322.199 209.868 322.513 210.554 322.685 211.281C322.858 212.008 322.886 212.762 322.768 213.5C322.649 214.238 322.387 214.945 321.996 215.582C321.605 216.218 321.092 216.771 320.488 217.209C320.425 217.254 320.362 217.298 320.297 217.341C319.597 217.805 318.804 218.108 317.973 218.228C317.143 218.349 316.296 218.283 315.493 218.037C314.492 217.733 313.595 217.154 312.904 216.366Z" fill="#FFB7B7"/>
<path d="M307.325 165.748L317.089 164.661C317.089 164.661 316.366 151.617 316.366 148.356C316.366 145.095 312.026 143.283 312.026 143.283L309.856 144.008L307.325 165.748Z" fill="#8B8B8B"/>
<path d="M275.513 183.846C275.513 183.846 267.195 199.083 267.195 217.563C267.195 236.042 266.471 320.83 266.471 320.83C266.471 320.83 277.321 325.903 283.831 319.743L289.617 225.896L312.401 317.931C312.401 317.931 323.251 320.105 328.314 316.482L318.549 252.347C318.549 252.347 314.571 192.199 303.722 187.851C292.872 183.503 275.513 183.846 275.513 183.846Z" fill="#2F2E41"/>
<path d="M277.083 123.367C281.307 120.304 284.727 116.775 286.99 112.578C286.99 112.578 294.743 121.209 299.481 121.641C304.22 122.072 299.912 111.283 299.912 111.283L291.297 109.125L283.113 109.988L276.652 114.304L277.083 123.367Z" fill="#2F2E41"/>
<path d="M301.913 141.109C301.913 141.109 302.258 140.924 281.662 141.675L273.042 144.054L271.896 144.37C271.896 144.37 272.981 166.11 275.874 170.096C278.767 174.082 278.044 176.256 277.321 176.618C276.598 176.981 274.789 176.256 275.874 178.068C276.959 179.879 278.406 178.792 276.959 179.879C275.513 180.966 274.789 184.952 274.789 184.952L306.615 189.3C306.615 189.3 307.7 175.169 310.593 167.922C313.486 160.675 314.209 157.776 314.209 157.776L312.04 143.283L301.913 141.109Z" fill="#8B8B8B"/>
<path d="M206.165 79.3036H204.335V29.0725C204.335 21.362 201.278 13.9673 195.836 8.51515C190.394 3.06301 183.014 2.19657e-05 175.318 9.53685e-06L69.0984 9.53685e-06C61.4026 -1.15923e-05 54.0219 3.06294 48.5801 8.51506C43.1384 13.9672 40.0812 21.3619 40.0811 29.0723V304.644C40.0811 312.355 43.1383 319.75 48.5801 325.202C54.0218 330.654 61.4025 333.717 69.0983 333.717H175.318C179.128 333.717 182.902 332.965 186.422 331.504C189.943 330.043 193.141 327.901 195.836 325.202C198.53 322.502 200.668 319.297 202.126 315.77C203.584 312.243 204.335 308.462 204.335 304.645V304.645V115.059H206.165L206.165 79.3036Z" fill="#3F3D56"/>
<path d="M198.159 29.2767V304.443C198.162 307.292 197.604 310.113 196.519 312.746C195.433 315.379 193.84 317.772 191.831 319.788C189.823 321.804 187.437 323.404 184.812 324.496C182.186 325.589 179.371 326.153 176.527 326.155H69.7594C64.0161 326.159 58.5064 323.877 54.4424 319.811C50.3784 315.745 48.093 310.228 48.0889 304.474V29.2767C48.0869 26.4275 48.6451 23.6058 49.7315 20.9727C50.8179 18.3396 52.4114 15.9466 54.4208 13.9305C56.4303 11.9144 58.8164 10.3146 61.443 9.22235C64.0695 8.13015 66.8851 7.56697 69.7289 7.56496H82.7065C82.0689 9.13113 81.8256 10.8304 81.9979 12.513C82.1702 14.1956 82.7529 15.8099 83.6947 17.2137C84.6365 18.6175 85.9085 19.7677 87.3985 20.563C88.8885 21.3582 90.5509 21.774 92.2391 21.7739H153.092C154.781 21.774 156.443 21.3582 157.933 20.563C159.423 19.7677 160.695 18.6175 161.637 17.2137C162.579 15.8099 163.161 14.1956 163.334 12.513C163.506 10.8304 163.263 9.13113 162.625 7.56496H176.489C182.231 7.5598 187.74 9.84028 191.804 13.9047C195.868 17.9691 198.154 23.4846 198.159 29.2377V29.2767L198.159 29.2767Z" fill="white"/>
<path d="M198.159 69.9868V60.6141H184.001V8.90527C181.596 8.01547 179.052 7.56162 176.489 7.56493H174.646V60.6141H125.533V21.7739H116.178V60.6141H75.0168V7.56498H69.7595C68.3844 7.56283 67.0122 7.69308 65.662 7.95394V60.6141H48.089V69.9868H65.662V91.666L48.0892 101.83V112.656L65.662 102.491V166.994H48.089V176.366H65.662V269.624H48.089V278.997H65.662V325.766C67.0122 326.027 68.3844 326.157 69.7595 326.155H75.0168V278.997H116.178V326.155H125.533V278.997H174.646V326.155H176.489C179.052 326.158 181.596 325.705 184.001 324.815V278.997H198.159V269.624H184.001V228.853H198.033V219.48H184.001V176.366H198.159V166.994H184.001V109.821H198.159V100.448H184.001V69.9868L198.159 69.9868ZM103.143 69.9868L103.142 69.9869L75.017 86.2578L75.0168 86.2579V69.9868H103.143ZM75.0168 97.0787L75.017 97.0786L116.178 73.2675V166.994H75.0168V97.0787ZM75.0168 269.624V176.366H116.178V269.624H75.0168ZM174.646 269.624H125.533V228.853H174.646V269.624ZM174.646 219.48H125.533V176.366H174.646V219.48ZM174.646 166.994H125.533V109.821H174.646V166.994ZM174.646 100.448H125.533V69.9868H174.646V100.448Z" fill="#E5E5E5"/>
<path d="M205.985 100.621C205.985 130.385 152.194 196.691 152.194 196.691C152.194 196.691 98.404 130.385 98.404 100.621C98.404 86.328 104.071 72.6202 114.159 62.5133C124.246 52.4065 137.928 46.7285 152.194 46.7285C166.46 46.7285 180.142 52.4065 190.23 62.5133C200.317 72.6202 205.985 86.328 205.985 100.621V100.621Z" fill="#8257E6"/>
<path d="M184.001 98.2781C184.001 104.581 182.136 110.742 178.641 115.982C175.146 121.223 170.179 125.307 164.367 127.719C158.555 130.131 152.16 130.762 145.99 129.533C139.82 128.303 134.153 125.268 129.704 120.811C125.256 116.355 122.227 110.677 121 104.495C119.772 98.3134 120.402 91.906 122.81 86.0831C125.217 80.2602 129.294 75.2832 134.524 71.7816C139.755 68.2801 145.904 66.4111 152.195 66.4111C156.37 66.4092 160.504 67.2311 164.362 68.8301C168.22 70.4291 171.726 72.7737 174.679 75.7301C177.633 78.6865 179.976 82.1968 181.576 86.0606C183.175 89.9243 183.999 94.0659 184.001 98.2488V98.2781Z" fill="white"/>
<path d="M152.084 110.858C158.628 110.858 163.934 105.542 163.934 98.9856C163.934 92.4289 158.628 87.1136 152.084 87.1136C145.54 87.1136 140.235 92.4289 140.235 98.9856C140.235 105.542 145.54 110.858 152.084 110.858Z" fill="#8257E6"/>
<path d="M169.281 126.101C164.173 129.355 158.245 131.083 152.192 131.082C146.138 131.081 140.211 129.352 135.104 126.096C136.166 122.376 138.408 119.104 141.492 116.775C144.576 114.445 148.332 113.186 152.194 113.186C156.056 113.187 159.813 114.448 162.896 116.778C165.979 119.108 168.22 122.381 169.281 126.101V126.101Z" fill="#8257E6"/>
<path d="M152.194 235.587C160.202 235.587 166.694 229.083 166.694 221.06C166.694 213.036 160.202 206.532 152.194 206.532C144.186 206.532 137.694 213.036 137.694 221.06C137.694 229.083 144.186 235.587 152.194 235.587Z" fill="#8257E6"/>
</svg>
