<svg width="265" height="214" viewBox="0 0 265 214" fill="none" xmlns="http://www.w3.org/2000/svg">
<g clip-path="url(#clip0)">
<path d="M176.464 214L176.408 213.995L88.536 205.835L8.63099 213.255C6.5447 213.449 4.46689 212.806 2.85462 211.468C1.24236 210.13 0.227727 208.207 0.0339291 206.122C0.0113727 205.879 8.55137e-05 205.635 6.59144e-05 205.391V15.4195C-0.00799929 13.4491 0.724335 11.5476 2.05208 10.0913C3.37982 8.63503 5.20617 7.73022 7.16952 7.55602L88.5361 -3.8147e-06L88.5923 0.00533259L176.464 8.1653L256.369 0.745126C258.455 0.551383 260.533 1.19406 262.145 2.53178C263.758 3.8695 264.772 5.79267 264.966 7.87823C264.989 8.12104 265 8.3645 265 8.60861V198.58C265.008 200.551 264.276 202.452 262.948 203.909C261.62 205.365 259.794 206.27 257.831 206.444L176.464 214Z" fill="#3F3D56"/>
<path d="M122.491 70.2802C105.481 57.8964 87.5845 46.1535 69.3016 35.3795L68.384 34.8389V71.3797H124.001L122.491 70.2802ZM69.5994 70.1647V36.9681C86.9921 47.253 104.023 58.4127 120.264 70.1648L69.5994 70.1647ZM208.576 145.376C201.22 137.73 193.673 130.259 185.936 122.962C183.803 120.948 181.657 118.951 179.497 116.969C166.319 104.868 152.707 93.3589 138.662 82.4422L138.498 82.3147H68.384V146.405H209.567L208.576 145.376ZM69.5994 145.191V83.5297H138.082C151.625 94.0606 164.801 105.181 177.61 116.89C179.835 118.922 182.044 120.971 184.237 123.035C191.907 130.24 199.397 137.625 206.707 145.191H69.5994ZM208.576 145.376C201.22 137.73 193.673 130.259 185.936 122.962C183.803 120.948 181.657 118.951 179.497 116.969C166.319 104.868 152.707 93.3589 138.662 82.4422L138.498 82.3147H68.384V146.405H209.567L208.576 145.376ZM69.5994 145.191V83.5297H138.082C151.625 94.0606 164.801 105.181 177.61 116.89C179.835 118.922 182.044 120.971 184.237 123.035C191.907 130.24 199.397 137.625 206.707 145.191H69.5994ZM122.491 70.2802C105.481 57.8964 87.5845 46.1535 69.3016 35.3795L68.384 34.8389V71.3797H124.001L122.491 70.2802ZM69.5994 70.1647V36.9681C86.9921 47.253 104.023 58.4127 120.264 70.1648L69.5994 70.1647ZM122.491 70.2802C105.481 57.8964 87.5845 46.1535 69.3016 35.3795L68.384 34.8389V71.3797H124.001L122.491 70.2802ZM69.5994 70.1647V36.9681C86.9921 47.253 104.023 58.4127 120.264 70.1648L69.5994 70.1647ZM208.576 145.376C201.22 137.73 193.673 130.259 185.936 122.962C183.803 120.948 181.657 118.951 179.497 116.969C166.319 104.868 152.707 93.3589 138.662 82.4422L138.498 82.3147H68.384V146.405H209.567L208.576 145.376ZM69.5994 145.191V83.5297H138.082C151.625 94.0606 164.801 105.181 177.61 116.89C179.835 118.922 182.044 120.971 184.237 123.035C191.907 130.24 199.397 137.625 206.707 145.191H69.5994ZM8.22705 157.34V158.555H56.2299V176.173H8.22705V177.388H57.4453V157.34H8.22705ZM68.384 188.323V200.634L69.5994 200.521V189.538H256.773V188.323L68.384 188.323ZM256.773 158.555V157.34H68.384V177.388H256.773V176.173H69.5994V158.555L256.773 158.555ZM143.269 70.1647C119.952 52.1842 95.327 35.9647 69.5994 21.641V9.33922L68.384 9.4516V21.8486L69.3199 22.8773C94.9427 37.162 119.467 53.3316 142.691 71.2522L142.855 71.3797H256.773V70.1647L143.269 70.1647ZM56.2298 70.1647H8.22705V71.3797H57.4453V10.4661L56.2298 10.5785L56.2298 70.1647ZM256.773 82.3147H156.626L157.936 83.3899C170.266 93.5321 182.373 104.289 194.255 115.66C195.945 117.276 197.628 118.905 199.305 120.547C207.655 128.703 215.842 137.125 223.866 145.813L224.868 146.406H256.773V145.191H224.945C217.008 136.588 208.899 128.235 200.618 120.131C198.962 118.509 197.3 116.898 195.632 115.299C184.006 104.148 172.133 93.5584 160.011 83.5297H256.773V82.3147ZM8.22705 188.323V189.538H56.2299V201.76L57.4453 201.648V188.323H8.22705ZM8.22705 82.3147V83.5297H56.2299V145.191H8.22705V146.406H57.4453V82.3147H8.22705ZM122.491 70.2802C105.481 57.8964 87.5845 46.1535 69.3016 35.3795L68.384 34.8389V71.3797H124.001L122.491 70.2802ZM69.5994 70.1647V36.9681C86.992 47.253 104.023 58.4127 120.264 70.1648L69.5994 70.1647ZM208.576 145.376C201.22 137.73 193.673 130.259 185.936 122.962C183.803 120.948 181.657 118.951 179.497 116.969C166.319 104.868 152.707 93.3589 138.662 82.4422L138.498 82.3147H68.384V146.405H209.567L208.576 145.376ZM69.5994 145.191V83.5297H138.082C151.625 94.0606 164.801 105.181 177.61 116.89C179.835 118.922 182.044 120.971 184.237 123.035C191.907 130.24 199.397 137.625 206.707 145.191H69.5994ZM122.491 70.2802C105.481 57.8964 87.5845 46.1535 69.3016 35.3795L68.384 34.8389V71.3797H124.001L122.491 70.2802ZM69.5994 70.1647V36.9681C86.9921 47.253 104.023 58.4127 120.264 70.1648L69.5994 70.1647ZM208.576 145.376C201.22 137.73 193.673 130.259 185.936 122.962C183.803 120.948 181.657 118.951 179.497 116.969C166.319 104.868 152.707 93.3589 138.662 82.4422L138.498 82.3147H68.384V146.405H209.567L208.576 145.376ZM69.5994 145.191V83.5297H138.082C151.625 94.0606 164.801 105.181 177.61 116.89C179.835 118.922 182.044 120.971 184.237 123.035C191.907 130.24 199.397 137.625 206.707 145.191H69.5994Z" fill="white"/>
<path d="M135.726 79.9541C135.726 95.3396 107.859 129.614 107.859 129.614C107.859 129.614 79.9912 95.3396 79.9912 79.9541C79.9912 72.5657 82.9273 65.48 88.1535 60.2556C93.3797 55.0312 100.468 52.0962 107.859 52.0962C115.25 52.0962 122.338 55.0312 127.564 60.2556C132.79 65.48 135.726 72.5657 135.726 79.9541Z" fill="#8257E6"/>
<path d="M120.599 78.7429C120.599 81.2617 119.851 83.7239 118.452 85.8181C117.052 87.9124 115.062 89.5447 112.734 90.5086C110.407 91.4724 107.845 91.7246 105.374 91.2333C102.903 90.7419 100.633 89.529 98.851 87.7479C97.0693 85.9669 95.856 83.6978 95.3645 81.2274C94.8729 78.757 95.1252 76.1964 96.0894 73.8694C97.0537 71.5424 98.6865 69.5535 100.781 68.1541C102.876 66.7548 105.34 66.0079 107.859 66.0079C109.532 66.0071 111.189 66.336 112.735 66.9757C114.281 67.6154 115.686 68.5534 116.869 69.7362C118.052 70.9189 118.991 72.3231 119.63 73.8685C120.27 75.4139 120.599 77.0703 120.599 78.7429Z" fill="#3F3D56"/>
<path d="M107.859 149.72C112.008 149.72 115.371 146.358 115.371 142.21C115.371 138.063 112.008 134.701 107.859 134.701C103.71 134.701 100.347 138.063 100.347 142.21C100.347 146.358 103.71 149.72 107.859 149.72Z" fill="#8257E6"/>
<path d="M179.835 47.9388C185.969 47.9388 190.942 42.9679 190.942 36.836C190.942 30.7041 185.969 25.7332 179.835 25.7332C173.701 25.7332 168.729 30.7041 168.729 36.836C168.729 42.9679 173.701 47.9388 179.835 47.9388Z" fill="#04D362"/>
<path d="M214.665 71.0508H160.179C160.11 71.0517 160.042 71.0463 159.975 71.0346L185.744 26.4139C185.902 26.136 186.13 25.9048 186.406 25.744C186.682 25.5831 186.995 25.4984 187.315 25.4984C187.634 25.4984 187.948 25.5831 188.224 25.744C188.5 25.9048 188.728 26.136 188.885 26.4139L206.18 56.3579L207.008 57.7907L214.665 71.0508Z" fill="white"/>
<path opacity="0.2" d="M214.665 71.0508H196.062L205.194 57.7905L205.851 56.8354L206.18 56.3578L207.008 57.7905L214.665 71.0508Z" fill="black"/>
<path d="M245.002 71.0508H197.876L207.008 57.7907L207.665 56.8355L219.565 39.5551C220.345 38.4225 222.222 38.352 223.139 39.3415C223.201 39.4089 223.258 39.4803 223.311 39.5551L245.002 71.0508Z" fill="white"/>
<path d="M248.499 133.951C251.603 133.951 254.12 131.435 254.12 128.332C254.12 125.228 251.603 122.712 248.499 122.712C245.394 122.712 242.878 125.228 242.878 128.332C242.878 131.435 245.394 133.951 248.499 133.951Z" fill="#04D362"/>
<path d="M249.041 145.257H247.89L248.414 127.485L249.041 145.257Z" fill="#CBCBCB"/>
<path d="M248.516 130.854L249.752 129.144L248.499 131.277L248.364 131.04L248.516 130.854Z" fill="#CBCBCB"/>
<path d="M248.381 132.58L247.144 130.871L248.398 133.003L248.533 132.766L248.381 132.58Z" fill="#CBCBCB"/>
<path d="M232.515 128.559C237.1 128.559 240.817 124.843 240.817 120.26C240.817 115.676 237.1 111.96 232.515 111.96C227.93 111.96 224.213 115.676 224.213 120.26C224.213 124.843 227.93 128.559 232.515 128.559Z" fill="#04D362"/>
<path d="M233.315 145.257H231.615L232.39 119.01L233.315 145.257Z" fill="#CBCBCB"/>
<path d="M232.54 123.984L234.366 121.46L232.515 124.609L232.315 124.259L232.54 123.984Z" fill="#CBCBCB"/>
<path d="M232.34 126.534L230.515 124.009L232.365 127.159L232.565 126.809L232.34 126.534Z" fill="#CBCBCB"/>
<path d="M39.7658 133.951C42.8704 133.951 45.3871 131.435 45.3871 128.332C45.3871 125.228 42.8704 122.712 39.7658 122.712C36.6613 122.712 34.1445 125.228 34.1445 128.332C34.1445 131.435 36.6613 133.951 39.7658 133.951Z" fill="#04D362"/>
<path d="M40.3079 145.257H39.1566L39.6813 127.485L40.3079 145.257Z" fill="#CBCBCB"/>
<path d="M39.7828 130.854L41.019 129.144L39.7658 131.277L39.6306 131.04L39.7828 130.854Z" fill="#CBCBCB"/>
<path d="M39.6475 132.58L38.4113 130.871L39.6644 133.003L39.7997 132.766L39.6475 132.58Z" fill="#CBCBCB"/>
<path d="M23.7822 128.559C28.3673 128.559 32.0843 124.843 32.0843 120.26C32.0843 115.676 28.3673 111.96 23.7822 111.96C19.197 111.96 15.48 115.676 15.48 120.26C15.48 124.843 19.197 128.559 23.7822 128.559Z" fill="#04D362"/>
<path d="M24.5824 145.257H22.882L23.6574 119.01L24.5824 145.257Z" fill="#CBCBCB"/>
<path d="M23.8073 123.984L25.6326 121.46L23.7823 124.609L23.5824 124.259L23.8073 123.984Z" fill="#CBCBCB"/>
<path d="M23.6074 126.534L21.7817 124.009L23.6324 127.159L23.8323 126.809L23.6074 126.534Z" fill="#CBCBCB"/>
</g>
<defs>
<clipPath id="clip0">
<rect width="265" height="214" fill="white"/>
</clipPath>
</defs>
</svg>
