<svg width="478" height="374" viewBox="0 0 478 374" fill="none" xmlns="http://www.w3.org/2000/svg">
<g clip-path="url(#clip0)">
<path opacity="0.1" d="M167.675 366.756C213.724 366.756 251.055 359.685 251.055 350.961C251.055 342.238 213.724 335.167 167.675 335.167C121.625 335.167 84.2944 342.238 84.2944 350.961C84.2944 359.685 121.625 366.756 167.675 366.756Z" fill="#8257E6"/>
<path opacity="0.1" d="M277.72 52.7443C247.077 51.6837 217.891 41.7884 190.022 30.9651C162.153 20.1418 134.549 8.15382 104.639 2.42023C85.4011 -1.26803 63.3984 -1.79357 47.9013 8.50892C32.9818 18.4516 28.1618 35.5671 25.5718 51.4612C23.6211 63.4208 22.4753 76.0101 27.8161 87.2074C31.5282 94.9816 38.1097 101.515 42.6646 108.963C58.512 134.871 47.3094 166.82 30.1409 192.117C22.0917 203.981 12.7404 215.316 6.52361 227.934C0.30678 240.552 -2.56726 255.058 2.87306 267.965C8.26129 280.748 21.1069 290.331 35.0225 297.078C63.2847 310.785 96.5753 314.705 129.061 316.93C200.95 321.845 273.218 319.719 345.296 317.583C371.972 316.797 398.762 315.997 425.002 311.873C439.576 309.582 454.618 305.946 465.201 297.168C478.629 286.027 481.957 267.165 472.956 253.198C457.862 229.761 416.138 223.943 405.575 198.797C399.77 184.953 405.731 169.537 414.173 156.702C432.279 129.161 462.625 105 464.221 73.5244C465.319 51.9062 450.731 30.2549 428.174 20.0235C404.533 9.2996 371.745 10.649 354.311 28.399C336.342 46.6556 304.78 53.6864 277.72 52.7443Z" fill="#8257E6"/>
<path d="M253.37 171.269L238.867 161.492L246.183 150.603L207.878 147.549L194.114 158.192L176.884 148.534L162.513 150.262L162.343 146.474C162.165 142.526 161.768 138.59 161.155 134.685C161.216 133.501 161.259 132.143 161.254 130.665C161.254 124.439 160.411 116.187 156.709 110.685L157.561 103.025L150.648 94.8576C151.758 92.6464 153.024 90.5168 154.436 88.4849C154.673 88.144 154.909 87.8126 155.165 87.4906C164.137 86.842 171.216 79.4655 171.216 70.4461C171.216 70.0294 171.216 69.6128 171.169 69.2009C171.169 69.0352 171.136 68.8647 171.117 68.699C171.993 69.1725 172.878 69.6459 173.763 70.1194C173.929 70.3561 174.119 70.5928 174.327 70.8722L174.369 70.9243L174.635 71.2509L174.72 71.3504C174.815 71.464 174.914 71.5729 175.013 71.6865L175.08 71.7623C175.331 72.0416 175.596 72.3257 175.88 72.605C175.914 72.6326 175.945 72.6626 175.975 72.695L176.33 73.0264L176.429 73.1164C176.732 73.3863 177.054 73.6467 177.376 73.8929L177.48 73.9686L177.887 74.2479L178.02 74.3332C178.176 74.4279 178.337 74.5273 178.493 74.6172L178.55 74.6504C178.735 74.7498 178.924 74.8445 179.114 74.9345L179.208 74.9723C179.369 75.0418 179.527 75.1081 179.682 75.1712L179.829 75.2233C179.994 75.2801 180.155 75.3322 180.326 75.3795L180.43 75.4079C180.638 75.46 180.847 75.5026 181.06 75.5358H181.083C181.284 75.5682 181.486 75.5888 181.69 75.5973H181.827C182.008 75.6068 182.19 75.6068 182.371 75.5973H182.49C182.717 75.5842 182.943 75.5573 183.167 75.5168C184.226 75.3775 185.243 75.0127 186.15 74.4468C186.38 74.2925 186.585 74.1023 186.756 73.8834C187.703 72.6429 186.661 71.2841 186.661 71.2841C186.292 70.4034 183.896 69.7832 183.896 69.7832C183.896 69.7832 176.32 66.6205 176.32 64.1017C176.32 61.5829 174.426 48.5154 154.876 45.5279C154.876 45.5279 142.158 44.813 138.584 51.6213L138.508 52.4167C137.457 53.0748 136.586 54.3958 135.549 54.784C135.101 54.8802 134.669 55.0397 134.265 55.2575V55.1675C134.146 55.2722 134.048 55.3993 133.977 55.5416C133.754 55.9847 133.62 56.4673 133.584 56.9619C133.477 57.5661 133.267 58.1475 132.963 58.6806C132.879 58.8321 132.784 58.9776 132.679 59.1162V59.1162L132.599 59.244C133.148 59.2868 133.7 59.1976 134.209 58.9836C134.129 59.6318 133.97 60.2678 133.735 60.8774C134.036 60.8872 134.334 60.8102 134.592 60.6558C134.851 60.5014 135.059 60.2759 135.193 60.0063V59.9684L135.255 59.8832C135.374 59.664 135.472 59.4342 135.549 59.1967L135.497 59.2535C135.591 58.9457 135.676 58.6332 135.781 58.3302C135.828 58.1595 135.907 57.9991 136.013 57.8568C136.139 57.7294 136.294 57.6334 136.464 57.5767C136.634 57.52 136.815 57.504 136.993 57.5301L136.799 61.635H136.884C136.77 61.9336 136.63 62.2219 136.467 62.4967C135.795 63.5856 134.573 64.329 134.123 65.5221C133.929 66.0975 133.855 66.7066 133.906 67.3118C133.906 67.6669 133.948 68.0267 133.977 68.3818V68.3534C134.043 69.3003 134.062 70.1999 133.55 70.9621C133.2 71.4829 132.637 71.8759 132.443 72.4677C132.389 72.6326 132.365 72.8058 132.372 72.9791C132.41 73.4979 132.518 74.0092 132.693 74.4989C132.696 74.4895 132.696 74.4798 132.693 74.4705C132.812 74.8307 132.839 75.2144 132.774 75.5878C132.561 76.5348 131.41 77.3254 131.467 78.2297C131.464 78.3487 131.482 78.4673 131.519 78.5801C131.741 79.0218 132.124 79.361 132.589 79.527C133.319 79.9421 134.158 80.127 134.995 80.0573C135.308 80.0006 135.612 79.8969 135.894 79.7495C135.563 80.5118 135.222 81.2646 134.876 81.9795C134.824 82.0932 134.767 82.2068 134.711 82.3204C134.711 82.3204 131.784 80.365 130.122 84.3516C129.637 85.18 129.29 86.0819 129.095 87.0219C129.012 87.3979 128.894 87.7655 128.745 88.1203C128.007 89.3693 126.903 90.3611 125.582 90.9611C122.192 92.514 108.499 109.592 108.257 114.014C108.139 115.74 107.847 117.45 107.386 119.118C106.308 123.045 106.031 127.149 106.571 131.186C106.741 132.491 107.021 133.779 107.409 135.035C108.863 139.453 109.834 147.696 109.834 147.696L111.406 162.004C111.347 163.978 111.433 165.955 111.661 167.917C110.056 169.749 103.612 177.386 106.074 179.465C107.968 181.103 111.283 180.833 113.143 180.497C111.576 184.375 109.109 191.117 108.783 195.747C108.309 202.598 109.592 211.674 111.624 215.159C113.655 218.644 120.426 227.583 120.426 227.583C120.426 227.583 120.108 239.845 122.528 244.3C124.947 248.756 125.923 257.998 125.923 257.998C125.923 257.998 128.181 265.8 127.05 268.669C125.918 271.539 129.147 273.925 125.757 275.833C122.367 277.741 118.03 320.745 118.03 320.745C118.03 320.745 116.283 348.93 118.03 350.365C118.123 350.433 118.223 350.491 118.328 350.54V360.009C118.328 360.009 117.116 361.998 122.045 362.4C125.421 362.67 134.99 363.281 140.667 363.636L145.066 363.911C145.066 363.911 155.482 365.984 160.084 363.911C164.687 361.837 172.845 361.884 171.633 356.406C171.472 355.661 171.257 354.928 170.989 354.214C169.658 350.815 167.4 350.426 163.238 349.479C162.996 349.427 162.764 349.38 162.551 349.342C158.167 348.58 156.727 350.621 154.27 347.964C152.135 345.668 145.335 343.097 143.02 342.283C143.077 342.112 143.148 341.947 143.205 341.772C142.549 341.66 141.939 341.363 141.448 340.915L147.722 341.312L151.458 341.544C151.458 341.544 160.312 343.31 164.242 341.544C168.172 339.778 175.084 339.826 174.052 335.172C173.916 334.537 173.734 333.914 173.508 333.306C172.376 330.418 170.454 330.101 166.917 329.301C166.713 329.258 166.524 329.215 166.334 329.182C162.608 328.534 161.387 330.267 159.299 328.013C157.509 326.091 151.86 323.936 149.829 323.202C149.829 322.151 148.408 320.655 147.514 319.154C146.462 317.403 148.404 311.271 148.404 311.271L149.512 285.832C149.934 285.644 150.38 285.517 150.837 285.454C150.837 285.454 155.847 280.672 154.715 275.577C154.485 274.036 154.364 272.481 154.355 270.923C156.003 269.394 158.271 267.135 158.915 265.743C159.966 263.476 158.915 252.487 158.915 252.487V210.467L167.296 211.315L174.9 212.096L177.215 212.332L184.819 213.099L202.295 214.865L218.044 211.883L224.857 210.595L238.867 207.943V173.665L253.37 171.269ZM138.025 57.6816L137.05 57.5774C137.371 57.5916 137.712 57.6532 138.025 57.6816Z" fill="url(#paint0_linear)"/>
<path d="M219.379 193.527C214.644 200.302 197.623 196.713 197.623 196.713L184.431 184.37L182.656 182.699L185.634 176.373C185.634 176.373 186.581 176.634 188.205 177.098C196.732 179.574 223.375 187.831 219.379 193.527Z" fill="#4A3E3E"/>
<path opacity="0.1" d="M188.196 177.098C187.613 179.124 186.017 182.159 184.431 184.37L182.656 182.699L185.634 176.373C185.634 176.373 186.59 176.634 188.196 177.098Z" fill="black"/>
<path d="M142.954 105.766C142.954 105.766 130.795 111.159 131.391 124.402C131.821 132.933 132.75 141.432 134.175 149.855C134.175 149.855 131.69 169.783 142.04 174.92C152.39 180.057 161.969 184.28 161.969 184.28C161.969 184.28 178.162 186.022 180.174 186.742C182.187 187.462 188.474 176.458 187.314 174.745C186.154 173.031 171.292 169.437 169.398 166.577C167.504 163.718 163.124 161.952 163.124 161.952C163.124 161.952 158.602 159.215 158.295 156.744C157.987 154.272 159.18 152.43 159.483 151.346C159.786 150.262 160.553 139.794 160.553 139.794C160.553 139.794 165.657 102.532 142.954 105.766Z" fill="#DCE6F2"/>
<path opacity="0.1" d="M150.98 149.31C150.98 149.31 134.299 152.104 135.913 157.941C135.913 157.941 141.969 151.64 150.98 149.31Z" fill="black"/>
<path opacity="0.1" d="M151.107 151.673C151.107 151.673 141.936 159.158 143.73 159.542C145.525 159.925 151.107 151.673 151.107 151.673Z" fill="black"/>
<path opacity="0.1" d="M155.515 154.282C155.515 154.282 153.058 159.314 154.568 158.974C156.079 158.633 155.515 154.282 155.515 154.282Z" fill="black"/>
<path opacity="0.1" d="M188.811 177.633L187.798 177.344C188.086 176.397 188.167 175.63 187.93 175.275C186.77 173.561 171.917 169.972 170.028 167.108C168.139 164.243 163.754 162.482 163.754 162.482C163.754 162.482 159.232 159.745 158.925 157.274C158.617 154.802 159.81 152.961 160.113 151.876C160.416 150.792 161.183 140.319 161.183 140.319C161.183 140.319 166.273 103.063 143.57 106.296C143.57 106.296 131.411 111.694 132.002 124.937C132.432 133.468 133.363 141.967 134.791 150.39C134.791 150.39 132.305 170.318 142.656 175.455C153.006 180.592 162.585 184.815 162.585 184.815C162.585 184.815 178.773 186.553 180.79 187.277C181.552 187.552 182.93 186.136 184.28 184.19L185.047 184.905L198.238 197.243C198.238 197.243 215.26 200.837 219.994 194.062C223.995 188.361 197.357 180.104 188.811 177.633Z" fill="black"/>
<path d="M135.956 56.0624C135.492 56.153 135.048 56.3245 134.644 56.569C134.171 56.9619 134.171 57.6343 134.052 58.2213C133.913 59.038 133.589 59.8121 133.105 60.4845C133.644 60.524 134.185 60.4347 134.682 60.2241C134.601 60.8721 134.442 61.508 134.209 62.1179C134.504 62.1254 134.795 62.0477 135.047 61.894C135.299 61.7403 135.501 61.5172 135.629 61.2515C135.88 60.718 136.078 60.1614 136.221 59.5896C136.265 59.4186 136.343 59.2579 136.448 59.1162C136.884 58.6001 137.694 58.8321 138.366 58.8984C138.925 58.9456 139.487 58.8423 139.994 58.5992C140.5 58.3561 140.932 57.9821 141.245 57.5159C141.96 56.4317 142.002 53.6572 140.298 53.3637C138.517 53.0701 137.409 55.5226 135.956 56.0624Z" fill="black"/>
<g opacity="0.1">
<path opacity="0.1" d="M134.597 57.1513C134.639 56.9193 134.668 56.6779 134.72 56.4459C134.27 56.8388 134.246 57.5064 134.128 58.0982C134.068 58.4397 133.975 58.7744 133.849 59.0972C134.221 58.5031 134.475 57.8422 134.597 57.1513V57.1513Z" fill="black"/>
<path opacity="0.1" d="M134.748 61.0621C134.984 60.4529 135.143 59.8167 135.222 59.1682C134.748 59.3678 134.234 59.4568 133.721 59.4286C133.571 59.7616 133.389 60.0789 133.176 60.3756C133.713 60.4171 134.252 60.3294 134.748 60.1199C134.67 60.7684 134.511 61.4045 134.275 62.0137C134.57 62.0207 134.86 61.9427 135.112 61.7891C135.364 61.6354 135.566 61.4127 135.695 61.1473C135.813 60.9321 135.908 60.7052 135.979 60.4703C135.84 60.6644 135.655 60.8204 135.44 60.9239C135.224 61.0273 134.987 61.0748 134.748 61.0621V61.0621Z" fill="black"/>
<path opacity="0.1" d="M138.905 57.8426C138.233 57.7763 137.419 57.5443 136.983 58.0604C136.879 58.2032 136.802 58.3636 136.756 58.5338C136.713 58.6569 136.675 58.7847 136.642 58.9126C137.092 58.5575 137.821 58.7469 138.432 58.8084C138.991 58.8541 139.553 58.7501 140.059 58.5072C140.564 58.2642 140.997 57.891 141.311 57.4259C141.454 57.196 141.561 56.9453 141.628 56.6826C141.304 57.0839 140.886 57.3995 140.411 57.6018C139.936 57.804 139.419 57.8867 138.905 57.8426Z" fill="black"/>
</g>
<path d="M150.208 95.1654L157.428 103.849L156.486 112.612L147.76 98.9531L150.208 95.1654Z" fill="#DCE6F2"/>
<path opacity="0.1" d="M157.424 103.849L156.538 112.092L156.481 112.612L148.607 100.284L147.76 98.9531L148.006 98.5696L150.203 95.1654L150.691 95.7525L157.424 103.849Z" fill="black"/>
<path d="M161.173 83.4094C158.73 84.1101 156.396 86.5153 154.365 89.4365C152.992 91.4521 151.764 93.5627 150.69 95.7525C150.023 97.0876 149.436 98.3707 148.948 99.4881L148.607 100.283C147.783 102.229 147.324 103.531 147.324 103.531C147.324 103.531 128.621 89.4697 131.581 88.5228C132.575 88.2055 133.882 86.075 135.174 83.3905L135.335 83.0496C136.155 81.3262 136.959 79.4039 137.674 77.5953C139.137 73.8787 140.222 70.6497 140.222 70.6497C140.222 70.6497 168.631 81.2788 161.173 83.4094Z" fill="#4A3E3E"/>
<path d="M172.362 69.859C172.362 69.859 176.68 77.6711 182.481 76.6058C188.281 75.5405 185.894 72.4109 185.894 72.4109L172.362 69.859Z" fill="#444053"/>
<path d="M163.995 340.275C160.17 342.023 151.519 340.275 151.519 340.275L147.873 340.048C143.138 339.745 135.212 339.234 132.409 339.007C128.318 338.67 129.322 336.994 129.322 336.994V326.867L149.171 321.839C149.171 321.839 157.016 324.523 159.166 326.867C161.207 329.102 162.4 327.383 166.041 328.027C166.221 328.06 166.41 328.098 166.609 328.145C170.065 328.936 171.94 329.249 173.048 332.113C173.271 332.715 173.45 333.332 173.583 333.959C174.606 338.571 167.816 338.538 163.995 340.275Z" fill="#303030"/>
<path opacity="0.1" d="M173.048 332.113C172.337 332.557 171.589 332.941 170.813 333.259C168.209 334.447 165.733 335.896 163.1 337.018C160.468 338.14 157.632 338.94 154.781 338.727C153.29 338.618 151.765 338.254 150.34 338.68C149.459 339.02 148.629 339.481 147.873 340.048C143.138 339.745 135.212 339.234 132.409 339.007C128.318 338.67 129.322 336.994 129.322 336.994V335.811C129.469 335.811 129.635 335.768 129.824 335.754C130.804 335.738 131.78 335.884 132.712 336.185C134.767 336.743 136.813 337.293 138.868 337.842C139.037 337.204 139.334 336.607 139.741 336.088C140.148 335.569 140.656 335.138 141.235 334.821C142.408 334.199 143.724 333.896 145.051 333.945C148.238 333.988 151.254 335.498 154.436 335.65C155.325 335.732 156.221 335.581 157.035 335.214C157.471 334.996 157.854 334.679 158.28 334.438C158.962 334.108 159.683 333.864 160.425 333.713C162.512 333.194 164.56 332.533 166.557 331.734C167.125 331.512 167.788 331.109 167.712 330.503C167.613 329.698 166.349 329.604 166.017 328.865C165.959 328.732 165.932 328.587 165.938 328.442C165.945 328.296 165.985 328.154 166.055 328.027C166.235 328.06 166.424 328.098 166.623 328.145C170.065 328.936 171.94 329.249 173.048 332.113Z" fill="black"/>
<path d="M159.952 362.433C155.454 364.488 145.274 362.433 145.274 362.433L140.989 362.182C135.44 361.827 126.093 361.236 122.793 360.956C117.978 360.558 119.161 358.589 119.161 358.589V346.653L142.518 340.735C142.518 340.735 151.751 343.893 154.28 346.653C156.68 349.281 158.067 347.259 162.371 348.017C162.584 348.054 162.807 348.102 163.039 348.154C167.106 349.101 169.313 349.456 170.615 352.827C170.878 353.535 171.089 354.261 171.244 355C172.419 360.426 164.45 360.383 159.952 362.433Z" fill="#303030"/>
<path opacity="0.1" d="M170.605 352.827C169.769 353.349 168.89 353.801 167.977 354.176C164.914 355.573 161.997 357.277 158.901 358.598C155.804 359.919 152.466 360.857 149.109 360.611C147.357 360.483 145.563 360.042 143.901 360.554C142.859 360.959 141.879 361.507 140.989 362.182C135.44 361.827 126.093 361.236 122.793 360.956C117.978 360.558 119.161 358.589 119.161 358.589V357.197C119.357 357.165 119.555 357.143 119.753 357.131C120.907 357.11 122.056 357.281 123.153 357.637L130.392 359.588C130.594 358.835 130.947 358.132 131.43 357.521C131.913 356.909 132.515 356.403 133.2 356.032C134.58 355.297 136.131 354.94 137.693 355C141.443 355.052 144.99 356.828 148.735 357.008C149.778 357.103 150.828 356.928 151.784 356.501C152.3 356.241 152.731 355.866 153.252 355.587C154.053 355.195 154.901 354.909 155.776 354.735C158.218 354.119 160.615 353.341 162.954 352.405C163.621 352.14 164.403 351.667 164.313 350.957C164.194 350.01 162.708 349.896 162.315 349.025C162.248 348.868 162.218 348.698 162.226 348.527C162.235 348.357 162.281 348.19 162.362 348.04C162.575 348.078 162.797 348.125 163.029 348.178C167.097 349.087 169.303 349.456 170.605 352.827Z" fill="black"/>
<path d="M149.772 280.53L148.508 310.277C148.508 310.277 146.614 316.352 147.642 318.089C148.669 319.827 150.402 321.56 149.772 322.587C149.143 323.614 141.567 334.722 139.119 330.461C136.671 326.199 134.256 307.735 134.256 307.735L136.515 284.928L149.772 280.53Z" fill="#444053"/>
<path d="M155.255 206.414L158.768 211.111V251.961C158.768 251.961 159.796 262.851 158.768 265.1C157.741 267.349 152.533 271.846 152.533 271.846L148.153 249.357L149.1 225.566L155.255 206.414Z" fill="#444053"/>
<path opacity="0.1" d="M149.772 280.53L148.508 310.277C148.508 310.277 146.614 316.352 147.642 318.089C148.669 319.827 150.402 321.56 149.772 322.587C149.143 323.614 141.567 334.722 139.119 330.461C136.671 326.199 134.256 307.735 134.256 307.735L136.515 284.928L149.772 280.53Z" fill="black"/>
<path opacity="0.1" d="M155.255 206.414L158.768 211.111V251.961C158.768 251.961 159.796 262.851 158.768 265.1C157.741 267.349 152.533 271.846 152.533 271.846L148.153 249.357L149.1 225.566L155.255 206.414Z" fill="black"/>
<path d="M158.768 188.991V211.087L154.824 228.288C154.824 228.288 153.56 269.796 154.663 274.843C155.766 279.89 150.875 284.63 150.875 284.63C150.875 284.63 148.034 284.947 148.034 287.153C148.034 289.36 143.3 295.676 143.3 295.676L143.456 307.986C143.456 307.986 145.511 331.029 142.353 335.446C139.194 339.864 143.456 340.498 143.456 340.498C139.512 353.438 120.572 350.441 118.863 349.02C117.154 347.6 118.863 319.666 118.863 319.666C118.863 319.666 123.096 277.054 126.41 275.161C129.725 273.267 126.571 270.899 127.675 268.059C128.778 265.218 126.571 257.486 126.571 257.486C126.571 257.486 125.624 248.33 123.257 243.912C120.89 239.495 121.202 227.341 121.202 227.341C121.202 227.341 114.573 218.502 112.604 215.031C110.634 211.561 109.365 202.565 109.839 195.776C110.161 191.188 112.571 184.507 114.1 180.663C114.834 178.821 115.364 177.628 115.364 177.628L115.814 177.746L141.676 184.517L158.768 188.991Z" fill="#444053"/>
<path opacity="0.1" d="M161.174 83.4094C158.73 84.1101 156.396 86.5153 154.365 89.4365H153.835C150.857 89.4386 147.932 88.6548 145.355 87.1642C142.778 85.6736 140.639 83.5291 139.157 80.9474C138.537 79.8777 138.038 78.7423 137.67 77.5622C139.133 73.8455 140.217 70.6165 140.217 70.6165C140.217 70.6165 168.631 81.2788 161.174 83.4094Z" fill="black"/>
<path d="M170.762 71.5729C170.766 74.1635 170.175 76.7205 169.036 79.0469C167.896 81.3733 166.237 83.4071 164.188 84.9915C162.138 86.576 159.752 87.6688 157.213 88.1859C154.675 88.703 152.051 88.6305 149.545 87.974C147.039 87.3175 144.717 86.0946 142.758 84.3993C140.799 82.7041 139.255 80.5819 138.246 78.1961C137.236 75.8103 136.788 73.2246 136.935 70.6382C137.082 68.0518 137.821 65.5337 139.095 63.2779C139.608 62.3613 140.208 61.4957 140.885 60.6928C142.002 59.3627 143.314 58.21 144.777 57.2744C147.248 55.704 150.085 54.8015 153.009 54.6551C155.934 54.5087 158.846 55.1234 161.462 56.4392C164.078 57.7549 166.308 59.7266 167.933 62.1618C169.559 64.5969 170.526 67.4122 170.738 70.3324C170.748 70.7491 170.762 71.161 170.762 71.5729Z" fill="#4A3E3E"/>
<path opacity="0.1" d="M156.538 112.092L156.481 112.612L148.607 100.302C147.783 102.248 147.324 103.55 147.324 103.55C147.324 103.55 128.621 89.4697 131.581 88.5228C132.575 88.2055 133.882 86.075 135.174 83.3905L135.335 83.0496C136.708 87.1403 144.687 95.3169 148.006 98.5932C148.389 98.972 148.707 99.2845 148.953 99.5118L149.459 99.9852L149.725 100.25C150.932 101.496 156.027 106.988 156.538 112.092Z" fill="black"/>
<path d="M162.424 153.86L161.562 181.591L161.41 186.529C161.41 186.529 151.202 185.582 141.676 184.54C134.005 183.702 126.775 182.798 125.662 182.268C124.242 181.6 121.197 181.084 118.797 180.757C116.941 180.507 115.483 180.374 115.483 180.374C115.483 180.374 114.938 180.535 114.1 180.686C112.272 181.018 109.062 181.288 107.192 179.664C104.801 177.585 111.084 170.034 112.651 168.22L112.997 167.827L112.405 162.359L110.866 148.179C110.866 148.179 109.919 140.011 108.499 135.632C108.119 134.387 107.845 133.112 107.68 131.821C107.152 127.821 107.422 123.756 108.475 119.861C108.925 118.206 109.21 116.511 109.327 114.8C109.564 110.42 122.94 93.4941 126.254 91.9553C127.745 91.2601 128.945 90.0638 129.644 88.5748C129.875 88.1067 130.049 87.6123 130.161 87.1024C131.581 80.9474 135.175 83.3905 135.175 83.3905C136.041 88.2056 149.455 100.951 149.455 100.951L149.72 101.216C151.051 102.58 156.979 108.981 156.557 114.445C156.473 116.478 156.777 118.509 157.452 120.429C160.181 129.02 161.749 137.937 162.116 146.943L162.424 153.86Z" fill="#DCE6F2"/>
<path opacity="0.1" d="M143.418 120.931C143.418 120.931 140.104 128.98 137.618 130.282C135.132 131.584 144.602 133.028 143.418 120.931Z" fill="black"/>
<path opacity="0.1" d="M145.904 135.963C145.904 135.963 138.328 136.91 138.328 138.331C138.328 139.751 145.904 135.963 145.904 135.963Z" fill="black"/>
<path opacity="0.1" d="M153.834 145.196C153.834 145.196 142.826 168.632 139.748 169.342C136.671 170.053 153.834 145.196 153.834 145.196Z" fill="black"/>
<path opacity="0.1" d="M149.246 102.139L140.141 106.098L129.152 89.4981C129.383 89.0299 129.556 88.5355 129.668 88.0256C131.088 81.8706 134.682 84.3137 134.682 84.3137C135.549 89.1288 148.962 101.874 148.962 101.874L149.246 102.139Z" fill="black"/>
<path d="M149.72 101.193L140.615 105.151L129.625 88.5512C129.856 88.083 130.03 87.5886 130.142 87.0787C131.562 80.9237 135.156 83.3668 135.156 83.3668C136.022 88.1819 149.436 100.927 149.436 100.927L149.72 101.193Z" fill="#DCE6F2"/>
<path opacity="0.1" d="M161.41 186.529C161.41 186.529 151.202 185.582 141.676 184.54L158.768 189.015V194.223C158.02 194.9 157.372 195.25 156.95 195.07C154.981 194.242 138.906 191.638 138.906 191.638C138.906 191.638 129.569 186.903 119.493 181.221C119.248 181.086 119.011 180.937 118.783 180.776C117.608 179.979 116.596 178.965 115.8 177.789C113.939 175.095 113.03 171.634 112.637 168.239C112.416 166.294 112.334 164.335 112.391 162.378C112.44 160.159 112.642 157.945 112.997 155.754C112.022 147.267 111.548 138.73 111.576 130.187C111.695 116.93 124.124 112.196 124.124 112.196C146.969 110.184 139.886 147.113 139.886 147.113C139.886 147.113 138.565 157.53 138.205 158.595C137.845 159.66 136.553 161.436 136.728 163.921C136.903 166.407 141.269 169.38 141.269 169.38C141.269 169.38 145.53 171.378 147.286 174.337C148.565 176.52 156.87 179.479 161.562 181.591L161.41 186.529Z" fill="black"/>
<path opacity="0.1" d="M169.062 61.0621C169.07 61.8419 168.909 62.6143 168.588 63.3252C168.346 63.9054 168.064 64.4685 167.745 65.0107C167.247 66.0082 166.54 66.8867 165.672 67.5864C164.578 68.3676 163.195 68.5854 161.884 68.9026C160.572 69.2198 159.209 69.7264 158.46 70.8438C158.055 71.5621 157.784 72.3482 157.66 73.1637C157.535 73.9785 157.21 74.7496 156.713 75.4079C156.455 75.7294 156.097 75.9559 155.696 76.0519C155.295 76.1478 154.873 76.1079 154.497 75.9382C154.101 75.6713 153.801 75.2847 153.64 74.835C153.101 73.6182 152.963 72.2689 152.746 70.9574C152.528 69.6459 152.22 68.2966 151.415 67.2407C150.61 66.1849 149.185 65.4889 147.921 65.9009C147.498 66.0637 147.112 66.3104 146.786 66.6261C146.461 66.9418 146.203 67.3199 146.027 67.7379C145.677 68.5746 145.437 69.4531 145.312 70.3514C144.725 73.5646 144.032 76.7589 143.233 79.9342C143.209 80.0644 143.155 80.1874 143.077 80.294C142.951 80.4195 142.781 80.4908 142.604 80.4929C141.543 80.6349 140.525 79.8916 139.455 79.9721C139.345 79.9794 139.235 79.9969 139.128 80.0242C137.398 77.0175 136.634 73.5517 136.94 70.0964C137.246 66.641 138.606 63.3632 140.837 60.707L140.923 60.6833C141.634 60.4306 142.281 60.0231 142.817 59.4902C143.5 58.8063 144.133 58.0736 144.711 57.2981L145.089 56.8246C146.178 55.5136 147.417 54.3359 148.782 53.3163C149.155 53.011 149.583 52.7796 150.042 52.6345C150.435 52.5579 150.838 52.5451 151.235 52.5966C152.87 52.7929 154.519 52.8547 156.164 52.7813C157.31 52.6011 158.466 52.4841 159.625 52.4309C162.622 52.5161 165.179 54.6325 167.073 56.9525C168.091 58.1409 169 59.5091 169.062 61.0621Z" fill="black"/>
<path d="M136.884 63.7277C136.226 64.8072 135.037 65.541 134.592 66.7247C133.939 68.4433 135.042 70.5834 134.029 72.1174C133.693 72.6334 133.139 73.0169 132.949 73.6088C132.627 74.6078 133.508 75.6731 133.281 76.7005C133.053 77.7279 131.699 78.5943 132.059 79.598C132.272 80.0358 132.645 80.3749 133.101 80.5449C133.818 80.9565 134.644 81.1398 135.468 81.0705C136.761 80.8574 137.722 79.5886 139.033 79.4939C140.099 79.4181 141.117 80.1567 142.177 80.0194C142.355 80.0132 142.524 79.9406 142.651 79.8158C142.731 79.7103 142.785 79.5868 142.807 79.456C143.603 76.2838 144.297 73.0895 144.89 69.8732C145.011 68.9746 145.25 68.0959 145.601 67.2597C145.778 66.8426 146.037 66.4651 146.362 66.1496C146.687 65.8341 147.072 65.587 147.495 65.4227C148.759 65.0155 150.179 65.7067 150.989 66.7625C151.798 67.8184 152.106 69.1677 152.324 70.4792C152.542 71.7907 152.679 73.14 153.214 74.3568C153.377 74.8081 153.679 75.1961 154.076 75.4647C154.786 75.8766 155.743 75.55 156.287 74.9345C156.786 74.2758 157.112 73.5026 157.234 72.6855C157.358 71.8715 157.629 71.0869 158.034 70.3703C158.782 69.2529 160.151 68.7463 161.458 68.4291C162.764 68.1119 164.142 67.8894 165.245 67.1082C166.112 66.4092 166.82 65.5326 167.319 64.5373C168.02 63.3158 168.673 61.9901 168.617 60.5839C168.555 59.0499 167.646 57.6816 166.675 56.4885C164.781 54.1685 162.22 52.0522 159.223 51.9717C158.063 52.0202 156.907 52.1371 155.762 52.322C154.116 52.396 152.467 52.3327 150.833 52.1326C150.435 52.0851 150.033 52.0995 149.639 52.1752C149.18 52.3157 148.753 52.5476 148.385 52.857C147.018 53.875 145.777 55.051 144.687 56.3606C143.984 57.2926 143.222 58.1782 142.405 59.012C141.869 59.5458 141.222 59.9548 140.511 60.2099C140.037 60.3424 139.564 60.2477 139.114 60.3945C137.717 60.8348 137.532 62.6576 136.884 63.7277Z" fill="black"/>
<path opacity="0.1" d="M182.481 76.601C178.693 77.297 175.554 74.2337 173.816 71.999C173.282 71.3203 172.796 70.6052 172.362 69.859L185.364 72.3115L185.89 72.4109C185.89 72.4109 188.281 75.5405 182.481 76.601Z" fill="black"/>
<g opacity="0.1">
<path opacity="0.1" d="M133.28 75.3464C133.333 74.7272 133.239 74.1042 133.006 73.5283C133.006 73.5756 132.963 73.623 132.949 73.6703C132.745 74.3048 133.02 74.9629 133.195 75.621C133.233 75.5326 133.261 75.4406 133.28 75.3464V75.3464Z" fill="black"/>
<path opacity="0.1" d="M134.407 67.5958C134.359 68.2505 134.371 68.9083 134.445 69.5607C134.494 68.906 134.481 68.2482 134.407 67.5958Z" fill="black"/>
<path opacity="0.1" d="M167.291 63.169C166.793 64.1665 166.085 65.0449 165.217 65.7446C164.123 66.5258 162.746 66.7436 161.429 67.0608C160.113 67.378 158.754 67.8846 158.006 69.002C157.601 69.7206 157.33 70.5066 157.206 71.322C157.082 72.1388 156.757 72.9119 156.259 73.5709C155.714 74.1864 154.758 74.5178 154.048 74.1012C153.65 73.8325 153.348 73.4446 153.186 72.9933C152.651 71.7765 152.509 70.4319 152.296 69.1156C152.083 67.7994 151.765 66.4548 150.961 65.399C150.156 64.3432 148.73 63.6472 147.466 64.0591C147.044 64.2227 146.658 64.4696 146.333 64.7852C146.007 65.1008 145.749 65.4786 145.572 65.8961C145.222 66.7323 144.983 67.611 144.862 68.5096C144.272 71.726 143.577 74.9203 142.779 78.0924C142.757 78.2233 142.703 78.3467 142.623 78.4523C142.496 78.577 142.327 78.6497 142.149 78.6559C141.088 78.7932 140.07 78.0546 139.005 78.1303C137.694 78.225 136.732 79.4939 135.44 79.7022C134.615 79.7761 133.788 79.5925 133.072 79.1767C132.743 79.0351 132.448 78.8253 132.206 78.5612C132.095 78.7198 132.022 78.9015 131.991 79.0926C131.961 79.2837 131.974 79.4792 132.031 79.6643C132.239 80.1051 132.614 80.4455 133.072 80.6112C133.788 81.0271 134.615 81.2107 135.44 81.1368C136.732 80.9285 137.694 79.6596 139.005 79.5649C140.07 79.4891 141.088 80.2277 142.149 80.0904C142.327 80.0843 142.496 80.0116 142.623 79.8868C142.703 79.7813 142.757 79.6579 142.779 79.527C143.574 76.3706 144.269 73.1763 144.862 69.9442C144.983 69.0456 145.222 68.1669 145.572 67.3307C145.749 66.9132 146.007 66.5354 146.333 66.2198C146.658 65.9042 147.044 65.6573 147.466 65.4937C148.73 65.0818 150.151 65.7778 150.961 66.8336C151.77 67.8894 152.078 69.2387 152.296 70.5502C152.514 71.8617 152.651 73.2111 153.186 74.4279C153.348 74.8791 153.65 75.2671 154.048 75.5358C154.758 75.9477 155.714 75.621 156.259 75.0055C156.757 74.3464 157.082 73.5734 157.206 72.7565C157.33 71.9412 157.601 71.1552 158.006 70.4366C158.754 69.3192 160.122 68.8174 161.429 68.4954C162.736 68.1735 164.114 67.9604 165.217 67.1792C166.085 66.4795 166.793 65.601 167.291 64.6036C167.992 63.3868 168.645 62.0611 168.588 60.6549C168.579 60.4741 168.56 60.2939 168.532 60.1152C168.303 61.1988 167.883 62.233 167.291 63.169V63.169Z" fill="black"/>
</g>
<path opacity="0.1" d="M168.607 63.311C169.822 65.4698 170.541 67.8712 170.714 70.3419C166.496 67.9746 162.528 65.3753 160.525 64.471C157.036 62.8944 143.986 63.1311 139.081 63.2779C139.594 62.3613 140.193 61.4957 140.871 60.6928C141.992 59.3615 143.309 58.2089 144.777 57.2744C146.721 56.0405 148.897 55.2161 151.171 54.8515C153.445 54.4869 155.769 54.5898 158.001 55.1539C160.234 55.718 162.328 56.7315 164.156 58.1324C165.984 59.5333 167.506 61.2922 168.631 63.3016L168.607 63.311Z" fill="black"/>
<path opacity="0.1" d="M183.664 74.5936C181.387 75.2943 177.67 73.9402 173.816 71.999C173.282 71.3203 172.796 70.6052 172.362 69.859L185.364 72.3115C186.226 72.8986 186.444 73.7366 183.664 74.5936Z" fill="black"/>
<path d="M154.843 46.8962C154.843 46.8962 142.414 46.186 138.92 52.9328L138.357 58.9126L137.41 58.8084L137.22 62.8755C137.22 62.8755 156.216 62.0469 160.539 63.9975C164.862 65.9482 178.295 75.7772 183.678 74.1201C189.062 72.463 183.205 70.9243 183.205 70.9243C183.205 70.9243 175.795 67.7852 175.795 65.3232C175.795 62.8612 173.958 49.8553 154.843 46.8962Z" fill="#444053"/>
<path opacity="0.1" d="M130.871 268.57C130.871 268.57 138.801 276.264 142.234 275.672C142.234 275.672 132.528 274.843 130.871 268.57Z" fill="black"/>
<path opacity="0.1" d="M129.213 272.135C129.213 272.135 129.924 276.093 131.818 275.705C133.711 275.317 129.213 272.135 129.213 272.135Z" fill="black"/>
<path opacity="0.1" d="M141.642 338.287C141.642 338.287 130.383 347.046 132.282 347.283C134.18 347.519 141.642 338.287 141.642 338.287Z" fill="black"/>
<path d="M156.704 164.447L193.162 158.514V193.03L158.522 191.216L156.704 164.447Z" fill="#8257E6"/>
<path opacity="0.05" d="M156.704 164.447L193.162 158.514V193.03L158.522 191.216L156.704 164.447Z" fill="black"/>
<path d="M193.162 158.514L236.884 161.786L234.464 191.822L193.162 193.03V158.514Z" fill="#8257E6"/>
<path opacity="0.1" d="M193.162 158.514L236.884 161.786L234.464 191.822L193.162 193.03V158.514Z" fill="black"/>
<path d="M206.604 147.98L193.162 158.514L236.884 161.786L244.028 151.005L206.604 147.98Z" fill="#8257E6"/>
<path d="M143.503 152.942L176.325 148.946L193.162 158.514L156.704 164.447L143.503 152.942Z" fill="#8257E6"/>
<path d="M201.155 167.477V214.667L184.076 212.915L176.647 212.157L174.384 211.921L166.96 211.158L156.704 210.107V164.447L193.158 166.928L201.155 167.477Z" fill="#8257E6"/>
<path d="M236.884 161.786V207.806L223.195 210.434L216.538 211.712L201.155 214.667V167.477L236.884 161.786Z" fill="#8257E6"/>
<path opacity="0.05" d="M236.884 161.786V207.806L223.195 210.434L216.538 211.712L201.155 214.667V167.477L236.884 161.786Z" fill="black"/>
<path d="M143.503 174.38L156.704 164.447L201.155 167.477L194.611 178.499L143.503 174.38Z" fill="#8257E6"/>
<path opacity="0.1" d="M143.503 174.38L156.704 164.447L201.155 167.477L194.611 178.499L143.503 174.38Z" fill="white"/>
<path d="M236.884 161.786L201.155 167.477L212.784 177.893L251.055 171.473L236.884 161.786Z" fill="#8257E6"/>
<path opacity="0.1" d="M236.884 161.786L201.155 167.477L212.784 177.893L251.055 171.473L236.884 161.786Z" fill="white"/>
<path opacity="0.1" d="M223.195 210.434L216.538 211.712V201.878L222.774 200.307L223.195 210.434Z" fill="white"/>
<path opacity="0.1" d="M184.076 206.409V212.915L176.647 212.157V206.409H184.076Z" fill="white"/>
<path opacity="0.1" d="M174.384 208.46V211.921L166.959 211.158V208.46H174.384Z" fill="white"/>
<path opacity="0.1" d="M196.685 202.958C191.595 209.468 174.786 204.97 174.786 204.97L162.296 191.941L160.601 190.175L163.915 184.02C163.915 184.02 164.862 184.332 166.443 184.881C174.815 187.807 200.97 197.48 196.685 202.958Z" fill="black"/>
<path d="M196.212 202.011C191.122 208.521 174.313 204.023 174.313 204.023L161.823 190.994L160.127 189.228L163.442 183.073C163.442 183.073 164.389 183.385 165.97 183.934C174.341 186.86 200.497 196.533 196.212 202.011Z" fill="#4A3E3E"/>
<path opacity="0.1" d="M165.951 183.934C165.26 185.923 163.503 188.868 161.803 190.994L160.108 189.228L163.423 183.073C163.423 183.073 164.374 183.385 165.951 183.934Z" fill="black"/>
<path d="M124.597 110.302C124.597 110.302 112.168 115.036 112.05 128.293C112.021 136.836 112.496 145.373 113.47 153.86C113.47 153.86 109.919 173.627 119.98 179.309C130.042 184.99 139.393 189.725 139.393 189.725C139.393 189.725 155.468 192.329 157.442 193.157C159.417 193.986 166.278 183.333 165.212 181.558C164.147 179.782 149.511 175.403 147.774 172.443C146.036 169.484 141.756 167.491 141.756 167.491C141.756 167.491 137.39 164.513 137.215 162.027C137.04 159.542 138.328 157.766 138.692 156.701C139.057 155.636 140.378 145.22 140.378 145.22C140.378 145.22 147.442 108.266 124.597 110.302Z" fill="#DCE6F2"/>
<path opacity="0.1" d="M130.279 154.192C130.279 154.192 113.47 156.085 114.772 162.004C114.772 162.004 121.159 156.033 130.279 154.192Z" fill="black"/>
<path opacity="0.1" d="M130.279 156.559C130.279 156.559 120.738 163.542 122.49 164.016C124.242 164.489 130.279 156.559 130.279 156.559Z" fill="black"/>
<path opacity="0.1" d="M134.54 159.4C134.54 159.4 131.818 164.295 133.356 164.04C134.895 163.784 134.54 159.4 134.54 159.4Z" fill="black"/>
<path d="M309.549 53.2121C309.549 53.2121 291.557 52.1279 293.659 64.7503C293.659 64.7503 293.238 66.9803 295.26 67.9935C295.26 67.9935 295.293 67.0466 297.106 67.3733C297.752 67.482 298.408 67.5138 299.062 67.468C299.947 67.409 300.788 67.0614 301.457 66.4785V66.4785C301.457 66.4785 306.519 64.3905 308.489 56.1144C308.489 56.1144 309.947 54.3058 309.909 53.8418L306.869 55.1438C306.869 55.1438 307.906 57.336 307.087 59.1588C307.087 59.1588 306.992 55.2243 306.405 55.3143C306.287 55.3143 304.829 56.0766 304.829 56.0766C304.829 56.0766 306.614 59.8926 305.264 62.6719C305.264 62.6719 305.776 57.9657 304.27 56.3512L302.13 57.6011C302.13 57.6011 304.218 61.545 302.802 64.7646C302.802 64.7646 303.167 59.8264 301.68 57.9041L299.739 59.4145C299.739 59.4145 301.704 63.3063 300.506 65.9766C300.506 65.9766 300.349 60.2288 299.317 59.7932C299.317 59.7932 297.622 61.2894 297.367 61.9049C297.367 61.9049 298.706 64.7456 297.873 66.2181C297.873 66.2181 297.362 62.3878 296.926 62.3688C296.926 62.3688 295.236 64.9066 295.061 66.63C295.143 65.0233 295.644 63.4661 296.514 62.1132C295.54 62.2975 294.641 62.7633 293.929 63.4531C293.929 63.4531 294.189 61.6587 296.931 61.5024C296.931 61.5024 298.351 59.5754 298.702 59.4571C298.702 59.4571 295.974 59.2298 294.322 59.9637C294.322 59.9637 295.776 58.2734 299.204 59.0167L301.098 57.4543C301.098 57.4543 297.509 56.9809 295.984 57.5064C295.984 57.5064 297.736 56.0103 301.614 57.0992L303.697 55.854C303.697 55.854 300.638 55.1912 298.815 55.4327C298.815 55.4327 300.738 54.3958 304.308 55.5179L305.799 54.8503C305.799 54.8503 303.555 54.41 302.902 54.339C302.248 54.2679 302.21 54.088 302.21 54.088C303.63 53.8517 305.088 54.0157 306.42 54.5615C306.42 54.5615 309.616 53.411 309.549 53.2121Z" fill="#8257E6"/>
<path opacity="0.1" d="M364.217 116.343C364.217 116.343 346.225 115.259 348.327 127.881C348.327 127.881 347.906 130.111 349.927 131.125C349.927 131.125 349.961 130.178 351.779 130.504C352.425 130.613 353.081 130.645 353.734 130.599C354.609 130.536 355.44 130.19 356.102 129.614V129.614C356.102 129.614 361.168 127.522 363.138 119.246C363.138 119.246 364.591 117.442 364.534 116.978L361.495 118.275C361.495 118.275 362.532 120.467 361.717 122.29C361.717 122.29 361.618 118.355 361.035 118.445C360.917 118.445 359.454 119.208 359.454 119.208C359.454 119.208 361.244 123.028 359.894 125.803C359.894 125.803 360.406 121.097 358.895 119.482L356.779 120.718C356.779 120.718 358.867 124.662 357.451 127.881C357.451 127.881 357.816 122.943 356.329 121.021L354.392 122.536C354.392 122.536 356.353 126.423 355.159 129.094C355.159 129.094 355.003 123.346 353.971 122.91C353.971 122.91 352.276 124.406 352.016 125.022C352.016 125.022 353.36 127.863 352.527 129.335C352.527 129.335 352.016 125.505 351.58 125.486C351.58 125.486 349.89 128.024 349.714 129.747C349.799 128.14 350.302 126.583 351.173 125.23C350.197 125.415 349.297 125.881 348.583 126.57C348.583 126.57 348.848 124.776 351.589 124.619C351.589 124.619 352.986 122.692 353.36 122.574C353.36 122.574 350.633 122.347 348.981 123.081C348.981 123.081 350.434 121.39 353.857 122.157L355.751 120.595C355.751 120.595 352.158 120.121 350.638 120.647C350.638 120.647 352.39 119.151 356.267 120.24L358.351 118.995C358.351 118.995 355.287 118.337 353.464 118.573C353.464 118.573 355.391 117.536 358.961 118.658L360.453 117.991C360.453 117.991 358.209 117.551 357.551 117.48C356.892 117.409 356.859 117.229 356.859 117.229C358.281 116.992 359.74 117.156 361.073 117.702C361.073 117.702 364.274 116.542 364.217 116.343Z" fill="#8257E6"/>
<path opacity="0.1" d="M254.914 105.136C254.914 105.136 259.057 87.5758 246.254 87.5143C246.254 87.5143 244.128 86.7189 242.788 88.537C242.788 88.537 243.702 88.7311 243.081 90.4639C242.867 91.0767 242.724 91.7122 242.655 92.3578C242.563 93.2379 242.761 94.1238 243.219 94.8813V94.8813C243.219 94.8813 244.417 100.231 252.215 103.584C252.215 103.584 253.749 105.326 254.213 105.345L253.455 102.13C253.455 102.13 251.116 102.779 249.459 101.657C249.459 101.657 253.356 102.229 253.361 101.657C253.361 101.538 252.887 99.971 252.887 99.971C252.887 99.971 248.82 101.079 246.311 99.275C246.311 99.275 250.861 100.582 252.712 99.3745L251.86 97.045C251.86 97.045 247.598 98.4323 244.682 96.4864C244.682 96.4864 249.488 97.6889 251.637 96.5526L250.477 94.3842C250.477 94.3842 246.311 95.6531 243.882 94.0196C243.882 94.0196 249.563 94.8434 250.179 93.906C250.179 93.906 248.995 91.979 248.432 91.6192C248.432 91.6192 245.42 92.4619 244.095 91.3872C244.095 91.3872 247.954 91.534 248.043 91.1268C248.043 91.1268 245.832 89.0294 244.147 88.5559C245.718 88.9135 247.168 89.6739 248.356 90.7622C248.339 89.7699 248.033 88.8042 247.475 87.983C247.475 87.983 249.199 88.5512 248.896 91.2972C248.896 91.2972 250.553 93.0017 250.605 93.3899C250.605 93.3899 251.292 90.7433 250.851 88.9867C250.851 88.9867 252.272 90.7101 250.932 93.9533L252.144 96.1076C252.144 96.1076 253.242 92.6513 252.963 91.0605C252.963 91.0605 254.142 93.0396 252.404 96.6757L253.28 98.9436C253.28 98.9436 254.45 96.0366 254.525 94.209C254.525 94.209 255.221 96.2828 253.503 99.6112L253.91 101.193C253.91 101.193 254.724 99.0572 254.904 98.4228C255.084 97.7884 255.269 97.7836 255.269 97.7836C255.262 99.224 254.853 100.634 254.09 101.855C254.09 101.855 254.71 105.16 254.914 105.136Z" fill="#8257E6"/>
<path opacity="0.1" d="M215.51 111.121C215.51 111.121 201.06 100.312 195.894 112.021C195.894 112.021 194.317 113.654 195.449 115.609C195.449 115.609 195.989 114.847 197.343 116.111C197.822 116.557 198.353 116.945 198.924 117.267C199.698 117.697 200.59 117.863 201.467 117.74V117.74C201.467 117.74 206.846 118.777 213.039 112.949C213.039 112.949 215.25 112.238 215.458 111.822L212.196 111.249C212.196 111.249 211.855 113.649 210.174 114.724C210.174 114.724 212.253 111.381 211.713 111.14C211.604 111.088 209.975 110.903 209.975 110.903C209.975 110.903 209.369 115.079 206.718 116.656C206.718 116.656 209.734 113.005 209.36 110.827L206.883 110.695C206.883 110.695 206.462 115.141 203.508 117.053C203.508 117.053 206.524 113.128 206.348 110.704L203.896 110.903C203.896 110.903 203.399 115.226 200.932 116.798C200.932 116.798 203.957 111.912 203.337 110.984C203.337 110.984 201.098 111.301 200.544 111.67C200.544 111.67 200.113 114.767 198.598 115.553C198.598 115.553 200.278 112.073 199.937 111.831C199.937 111.831 197.13 113.02 196.026 114.374C196.981 113.077 198.257 112.052 199.729 111.4C198.813 111.02 197.806 110.914 196.831 111.097C196.831 111.097 198.034 109.743 200.411 111.121C200.411 111.121 202.636 110.283 203.015 110.387C203.015 110.387 200.861 108.697 199.076 108.403C199.076 108.403 201.225 107.788 203.664 110.297L206.121 110.046C206.121 110.046 203.389 107.679 201.822 107.281C201.822 107.281 204.109 106.992 206.746 110.032L209.17 110.141C209.17 110.141 206.978 107.906 205.326 107.101C205.326 107.101 207.499 107.291 209.866 110.193L211.481 110.453C211.481 110.453 209.847 108.853 209.336 108.436C208.825 108.02 208.896 107.845 208.896 107.845C210.213 108.428 211.342 109.365 212.158 110.553C212.158 110.553 215.449 111.315 215.51 111.121Z" fill="#8257E6"/>
<path opacity="0.1" d="M263.621 10.6954C263.621 10.6954 249.17 -0.118386 244.005 11.595C244.005 11.595 242.428 13.2284 243.56 15.1838C243.56 15.1838 244.099 14.4216 245.454 15.6857C245.936 16.1296 246.468 16.5157 247.04 16.8362C247.813 17.2671 248.706 17.4334 249.582 17.3097V17.3097C249.582 17.3097 254.961 18.3465 261.154 12.5135C261.154 12.5135 263.365 11.8081 263.569 11.3867L260.307 10.8233C260.307 10.8233 259.971 13.2237 258.285 14.2985C258.285 14.2985 260.368 10.9558 259.829 10.7144C259.72 10.6623 258.091 10.4776 258.091 10.4776C258.091 10.4776 257.466 14.663 254.814 16.2302C254.814 16.2302 257.826 12.5798 257.456 10.4019L254.98 10.2693C254.98 10.2693 254.554 14.7151 251.604 16.6231C251.604 16.6231 254.62 12.6982 254.445 10.2741L251.997 10.4729C251.997 10.4729 251.495 14.8003 249.028 16.3722C249.028 16.3722 252.059 11.4861 251.438 10.5581C251.438 10.5581 249.199 10.8753 248.645 11.2446C248.645 11.2446 248.214 14.3411 246.699 15.127C246.699 15.127 248.38 11.6471 248.039 11.4009C248.039 11.4009 245.231 12.594 244.128 13.9481C245.081 12.6502 246.357 11.625 247.831 10.9748C246.914 10.5913 245.904 10.4859 244.928 10.6718C244.928 10.6718 246.135 9.31767 248.512 10.6954C248.512 10.6954 250.738 9.85268 251.116 9.96157C251.116 9.96157 248.962 8.27132 247.177 7.97304C247.177 7.97304 249.322 7.36228 251.76 9.86688L254.218 9.61594C254.218 9.61594 251.491 7.24865 249.919 6.84621C249.919 6.84621 252.205 6.56213 254.848 9.60174L257.272 9.7059C257.272 9.7059 255.08 7.47118 253.422 6.67103C253.422 6.67103 255.6 6.86041 257.968 9.76272L259.578 10.0231C259.578 10.0231 257.939 8.44177 257.428 8.03459C256.917 7.62742 256.988 7.4475 256.988 7.4475C258.305 8.03013 259.435 8.96782 260.25 10.1557C260.25 10.1557 263.541 10.8753 263.621 10.6954Z" fill="#8257E6"/>
<path opacity="0.1" d="M318.839 24.3926C318.839 24.3926 313.062 7.296 302.168 14.0144C302.168 14.0144 299.942 14.4879 299.767 16.7179C299.767 16.7179 300.643 16.3959 301.031 18.195C301.176 18.835 301.393 19.4562 301.68 20.0463C302.071 20.8404 302.709 21.4865 303.498 21.888V21.888C303.498 21.888 307.343 25.7941 315.752 24.5015C315.752 24.5015 317.972 25.1738 318.38 24.9418L316.012 22.6172C316.012 22.6172 314.374 24.4021 312.376 24.3311C312.376 24.3311 315.989 22.7592 315.69 22.2526C315.629 22.1532 314.393 21.0784 314.393 21.0784C314.393 21.0784 311.524 24.1701 308.446 23.9665C308.446 23.9665 312.996 22.6692 313.924 20.6523L311.964 19.142C311.964 19.142 309.095 22.5603 305.577 22.4562C305.577 22.4562 310.312 20.9364 311.509 18.8342L309.379 17.608C309.379 17.608 306.538 20.889 303.593 20.7849C303.593 20.7849 308.858 18.4791 308.872 17.3618C308.872 17.3618 306.85 16.3533 306.183 16.3438C306.183 16.3438 304.071 18.6496 302.395 18.4412C302.395 18.4412 305.747 16.5237 305.605 16.1308C305.605 16.1308 302.622 15.52 300.941 16.0124C302.462 15.4831 304.094 15.3607 305.676 15.6573C305.136 14.8235 304.364 14.1654 303.456 13.7635C303.456 13.7635 305.217 13.3326 306.396 15.8135C306.396 15.8135 308.706 16.3864 308.953 16.6847C308.953 16.6847 308.138 14.0759 306.836 12.8165C306.836 12.8165 308.953 13.5315 309.53 16.9925L311.699 18.1761C311.699 18.1761 310.804 14.6678 309.724 13.4415C309.724 13.4415 311.775 14.5021 312.22 18.5028L314.161 19.9658C314.161 19.9658 313.621 16.8788 312.712 15.2785C312.712 15.2785 314.398 16.6705 314.701 20.4061L315.88 21.5329C315.88 21.5329 315.444 19.2887 315.264 18.6543C315.084 18.0199 315.231 17.9773 315.231 17.9773C315.984 19.2055 316.382 20.618 316.382 22.0585C316.382 22.0585 318.673 24.5157 318.839 24.3926Z" fill="#8257E6"/>
<path opacity="0.1" d="M281.14 25.2354C281.14 25.2354 263.195 23.2374 264.677 35.9687C264.677 35.9687 264.142 38.175 266.097 39.2829C266.097 39.2829 266.178 38.336 267.991 38.7621C268.632 38.9 269.286 38.9651 269.942 38.9562C270.827 38.9403 271.683 38.6361 272.38 38.0898V38.0898C272.38 38.0898 277.546 36.2575 279.956 28.0904C279.956 28.0904 281.5 26.3622 281.467 25.8935L278.365 27.0393C278.365 27.0393 279.312 29.2787 278.365 31.0589C278.365 31.0589 278.465 27.1245 277.892 27.186C277.773 27.186 276.277 27.8678 276.277 27.8678C276.277 27.8678 277.868 31.7739 276.381 34.4963C276.381 34.4963 277.129 29.8185 275.704 28.133L273.503 29.2693C273.503 29.2693 275.397 33.3173 273.81 36.4611C273.81 36.4611 274.426 31.5466 273.039 29.5533L271.026 30.9737C271.026 30.9737 272.788 34.9555 271.457 37.5643C271.457 37.5643 271.594 31.8165 270.586 31.3288C270.586 31.3288 268.815 32.7492 268.526 33.3363C268.526 33.3363 269.724 36.2244 268.82 37.6684C268.82 37.6684 268.503 33.8192 268.086 33.7813C268.086 33.7813 266.268 36.2291 266.003 37.9572C266.167 36.3551 266.748 34.8239 267.688 33.5162C266.706 33.652 265.784 34.0716 265.037 34.7235C265.037 34.7235 265.387 32.948 268.133 32.9291C268.133 32.9291 269.625 31.0779 270.027 30.9785C270.027 30.9785 267.314 30.6139 265.624 31.2625C265.624 31.2625 267.163 29.6433 270.543 30.5855L272.537 29.1225C272.537 29.1225 268.933 28.3934 267.409 28.8668C267.409 28.8668 269.236 27.4464 273.053 28.7485L275.198 27.6074C275.198 27.6074 272.172 26.7931 270.34 26.9398C270.34 26.9398 272.314 25.9929 275.823 27.3044L277.347 26.7126C277.347 26.7126 275.127 26.1586 274.473 26.0545C273.82 25.9503 273.796 25.7704 273.796 25.7704C275.228 25.6062 276.676 25.8422 277.982 26.4522C277.982 26.4522 281.173 25.4342 281.14 25.2354Z" fill="#8257E6"/>
<path opacity="0.1" d="M438.147 164.513C438.147 164.513 420.211 162.515 421.693 175.232C421.693 175.232 421.158 177.438 423.114 178.546C423.114 178.546 423.194 177.599 425.008 178.021C425.648 178.163 426.303 178.229 426.959 178.215C427.844 178.201 428.701 177.897 429.397 177.349V177.349C429.397 177.349 434.563 175.516 436.949 167.354C436.949 167.354 438.493 165.621 438.46 165.157L435.358 166.298C435.358 166.298 436.305 168.542 435.358 170.322C435.358 170.322 435.458 166.383 434.885 166.449C434.766 166.449 433.27 167.127 433.27 167.127C433.27 167.127 434.861 171.033 433.374 173.755C433.374 173.755 434.122 169.082 432.697 167.392L430.496 168.533C430.496 168.533 432.389 172.581 430.808 175.725C430.808 175.725 431.419 170.81 430.032 168.812L428.019 170.232C428.019 170.232 429.781 174.214 428.45 176.818C428.45 176.818 428.587 171.07 427.579 170.588C427.579 170.588 425.813 172.008 425.519 172.595C425.519 172.595 426.722 175.483 425.813 176.927C425.813 176.927 425.496 173.078 425.079 173.04C425.079 173.04 423.261 175.488 422.996 177.216C423.16 175.614 423.741 174.083 424.681 172.775C423.698 172.908 422.776 173.328 422.03 173.982C422.03 173.982 422.38 172.202 425.126 172.183C425.126 172.183 426.622 170.332 427.02 170.237C427.02 170.237 424.307 169.868 422.617 170.516C422.617 170.516 424.156 168.902 427.541 169.844L429.53 168.381C429.53 168.381 425.969 167.709 424.421 168.173C424.421 168.173 426.248 166.752 430.065 168.05L432.21 166.913C432.21 166.913 429.184 166.099 427.352 166.246C427.352 166.246 429.326 165.299 432.835 166.61L434.359 166.014C434.359 166.014 432.139 165.46 431.485 165.361C430.832 165.261 430.808 165.076 430.808 165.076C432.239 164.909 433.688 165.144 434.994 165.753C434.994 165.753 438.194 164.717 438.147 164.513Z" fill="#8257E6"/>
<path opacity="0.1" d="M465.566 181.264C465.566 181.264 447.631 179.271 449.113 191.983C449.113 191.983 448.583 194.189 450.533 195.297C450.533 195.297 450.614 194.35 452.427 194.777C453.066 194.916 453.719 194.979 454.373 194.966C455.255 194.948 456.107 194.646 456.802 194.104V194.104C456.802 194.104 461.963 192.272 464.35 184.105C464.35 184.105 465.898 182.377 465.86 181.908L462.759 183.049C462.759 183.049 463.706 185.293 462.759 187.073C462.759 187.073 462.858 183.139 462.285 183.2C462.167 183.2 460.671 183.878 460.671 183.878C460.671 183.878 462.262 187.784 460.775 190.506C460.775 190.506 461.523 185.833 460.098 184.147L457.896 185.284C457.896 185.284 459.79 189.332 458.209 192.476C458.209 192.476 458.819 187.561 457.432 185.568L455.42 186.988C455.42 186.988 457.181 190.97 455.855 193.579C455.855 193.579 455.988 187.826 454.979 187.343C454.979 187.343 453.213 188.764 452.92 189.351C452.92 189.351 454.122 192.239 453.213 193.683C453.213 193.683 452.896 189.834 452.479 189.796C452.479 189.796 450.661 192.244 450.401 193.972C450.565 192.37 451.144 190.839 452.082 189.531C451.099 189.666 450.178 190.086 449.43 190.738C449.43 190.738 449.785 188.958 452.531 188.944C452.531 188.944 454.023 187.092 454.425 186.993C454.425 186.993 451.712 186.628 450.022 187.277C450.022 187.277 451.561 185.658 454.946 186.6L456.935 185.137C456.935 185.137 453.374 184.465 451.826 184.929C451.826 184.929 453.654 183.508 457.47 184.81L459.615 183.669C459.615 183.669 456.589 182.855 454.757 183.002C454.757 183.002 456.731 182.055 460.24 183.366L461.764 182.774C461.764 182.774 459.544 182.22 458.895 182.116C458.246 182.012 458.213 181.832 458.213 181.832C459.645 181.668 461.094 181.904 462.399 182.514C462.399 182.514 465.614 181.468 465.566 181.264Z" fill="#8257E6"/>
<path opacity="0.1" d="M404.691 40.1683C404.691 40.1683 390.24 29.3592 385.075 41.0679C385.075 41.0679 383.498 42.7013 384.63 44.6567C384.63 44.6567 385.169 43.8944 386.523 45.1586C387.003 45.6048 387.534 45.9926 388.105 46.3138C388.878 46.7441 389.771 46.9103 390.647 46.7873V46.7873C390.647 46.7873 396.026 47.8242 402.224 41.9959C402.224 41.9959 404.431 41.2857 404.639 40.869L401.386 40.2819C401.386 40.2819 401.045 42.6824 399.364 43.7571C399.364 43.7571 401.443 40.4145 400.903 40.173C400.794 40.121 399.17 39.9363 399.17 39.9363C399.17 39.9363 398.559 44.1122 395.908 45.6889C395.908 45.6889 398.924 42.0385 398.55 39.8606L396.074 39.728C396.074 39.728 395.652 44.1738 392.698 46.0866C392.698 46.0866 395.718 42.1616 395.539 39.7375L393.086 39.9363C393.086 39.9363 392.612 44.259 390.122 45.8309C390.122 45.8309 393.152 40.9448 392.527 40.0168C392.527 40.0168 390.288 40.334 389.734 40.7033C389.734 40.7033 389.308 43.7997 387.792 44.5857C387.792 44.5857 389.469 41.1058 389.128 40.8643C389.128 40.8643 386.32 42.0527 385.217 43.4068C386.171 42.1103 387.447 41.0854 388.919 40.4334C388.003 40.0528 386.996 39.9475 386.022 40.1304C386.022 40.1304 387.229 38.7763 389.606 40.1541C389.606 40.1541 391.826 39.3161 392.205 39.4202C392.205 39.4202 390.051 37.73 388.266 37.4364C388.266 37.4364 390.415 36.821 392.854 39.3303L395.311 39.0794C395.311 39.0794 392.584 36.7121 391.012 36.3143C391.012 36.3143 393.299 36.0255 395.936 39.0651L398.365 39.174C398.365 39.174 396.168 36.9393 394.516 36.1344C394.516 36.1344 396.694 36.3238 399.057 39.2261L400.671 39.4865C400.671 39.4865 399.038 37.8862 398.526 37.4696C398.015 37.0529 398.091 36.9156 398.091 36.9156C399.406 37.4999 400.534 38.4373 401.348 39.6238C401.348 39.6238 404.629 40.3624 404.691 40.1683Z" fill="#8257E6"/>
<path opacity="0.1" d="M415.855 118.204C415.855 118.204 410.874 100.861 399.672 107.087C399.672 107.087 397.427 107.433 397.148 109.677C397.148 109.677 398.038 109.398 398.346 111.211C398.46 111.862 398.651 112.498 398.914 113.105C399.265 113.921 399.874 114.599 400.647 115.036V115.036C400.647 115.036 404.312 119.108 412.768 118.199C412.768 118.199 414.956 118.966 415.372 118.758L413.133 116.324C413.133 116.324 411.414 118.038 409.425 117.877C409.425 117.877 413.1 116.457 412.816 115.95C412.759 115.846 411.575 114.715 411.575 114.715C411.575 114.715 408.573 117.678 405.505 117.333C405.505 117.333 410.112 116.244 411.125 114.284L409.231 112.683C409.231 112.683 406.21 115.969 402.702 115.714C402.702 115.714 407.475 114.402 408.791 112.361L406.717 111.04C406.717 111.04 403.71 114.189 400.794 113.952C400.794 113.952 406.158 111.883 406.225 110.771C406.225 110.771 404.245 109.672 403.578 109.634C403.578 109.634 401.367 111.841 399.686 111.557C399.686 111.557 403.123 109.791 403 109.393C403 109.393 400.046 108.65 398.346 109.061C399.885 108.605 401.517 108.558 403.081 108.924C402.58 108.067 401.839 107.376 400.95 106.936C400.95 106.936 402.73 106.58 403.791 109.114C403.791 109.114 406.068 109.786 406.305 110.098C406.305 110.098 405.609 107.452 404.364 106.14C404.364 106.14 406.447 106.945 406.869 110.43L408.98 111.713C408.98 111.713 408.242 108.162 407.219 106.912C407.219 106.912 409.217 108.062 409.487 112.077L411.381 113.626C411.381 113.626 410.978 110.52 410.145 108.891C410.145 108.891 411.769 110.359 411.902 114.099L413.029 115.283C413.029 115.283 412.697 113.02 412.555 112.376C412.413 111.732 412.555 111.642 412.555 111.642C413.256 112.901 413.592 114.331 413.526 115.77C413.526 115.77 415.685 118.318 415.855 118.204Z" fill="#8257E6"/>
<path opacity="0.1" d="M304.861 157.283C304.861 157.283 295.188 142.047 286.206 151.166C286.206 151.166 284.151 152.113 284.511 154.362C284.511 154.362 285.292 153.841 286.097 155.498C286.386 156.086 286.746 156.636 287.167 157.137C287.732 157.82 288.505 158.299 289.369 158.5V158.5C289.369 158.5 294.033 161.379 301.893 158.121C301.893 158.121 304.208 158.244 304.549 157.927L301.708 156.223C301.708 156.223 300.538 158.353 298.583 158.756C298.583 158.756 301.717 156.388 301.296 155.953C301.215 155.868 299.757 155.12 299.757 155.12C299.757 155.12 297.707 158.803 294.667 159.338C294.667 159.338 298.782 156.994 299.208 154.826L296.94 153.827C296.94 153.827 294.966 157.828 291.528 158.562C291.528 158.562 295.742 155.962 296.429 153.633L294.061 152.951C294.061 152.951 292.063 156.819 289.199 157.411C289.199 157.411 293.763 153.917 293.512 152.828C293.512 152.828 291.306 152.331 290.671 152.482C290.671 152.482 289.17 155.224 287.475 155.423C287.475 155.423 290.278 152.762 290.046 152.411C290.046 152.411 287.002 152.53 285.486 153.406C286.838 152.53 288.395 152.024 290.003 151.938C289.283 151.257 288.38 150.801 287.404 150.626C287.404 150.626 289.009 149.788 290.718 151.919C290.718 151.919 293.086 151.919 293.412 152.156C293.412 152.156 291.992 149.788 290.434 148.903C290.434 148.903 292.66 149.092 294.042 152.317L296.433 152.951C296.433 152.951 294.724 149.755 293.394 148.842C293.394 148.842 295.633 149.381 297.02 153.164L299.255 154.111C299.255 154.111 297.996 151.247 296.732 149.907C296.732 149.907 298.701 150.854 299.88 154.409L301.301 155.228C301.301 155.228 300.354 153.15 300.018 152.577C299.681 152.004 299.814 151.872 299.814 151.872C300.839 152.884 301.562 154.161 301.902 155.56C301.902 155.56 304.733 157.444 304.861 157.283Z" fill="#8257E6"/>
<path d="M368.436 79.4371C368.436 79.4371 359.237 63.9123 349.97 72.7471C349.97 72.7471 347.887 73.6467 348.181 75.8909C348.181 75.8909 348.971 75.389 349.729 77.0698C350 77.6673 350.342 78.23 350.747 78.7458C351.291 79.444 352.05 79.9433 352.906 80.1662V80.1662C352.906 80.1662 357.475 83.1869 365.434 80.1662C365.434 80.1662 367.745 80.3603 368.095 80.0526L365.316 78.2629C365.316 78.2629 364.085 80.3509 362.115 80.6965C362.115 80.6965 365.321 78.4097 364.918 77.9788C364.833 77.8889 363.403 77.0935 363.403 77.0935C363.403 77.0935 361.239 80.7154 358.195 81.1558C358.195 81.1558 362.38 78.94 362.868 76.7904L360.633 75.7394C360.633 75.7394 358.536 79.6833 355.075 80.313C355.075 80.313 359.369 77.8463 360.127 75.5405L357.788 74.783C357.788 74.783 355.666 78.5707 352.788 79.0915C352.788 79.0915 357.456 75.7394 357.238 74.6457C357.238 74.6457 355.051 74.0775 354.398 74.2101C354.398 74.2101 352.811 76.9041 351.112 77.0508C351.112 77.0508 353.995 74.4847 353.777 74.1249C353.777 74.1249 350.728 74.1485 349.189 74.9771C350.568 74.1457 352.139 73.6887 353.749 73.6514C353.049 72.9476 352.159 72.4637 351.187 72.2594C351.187 72.2594 352.821 71.4687 354.502 73.6514C354.502 73.6514 356.869 73.7319 357.186 73.9734C357.186 73.9734 355.846 71.6061 354.312 70.6307C354.312 70.6307 356.528 70.8864 357.811 74.1533L360.179 74.8635C360.179 74.8635 358.574 71.6155 357.267 70.6591C357.267 70.6591 359.492 71.2699 360.761 75.0907L362.963 76.1181C362.963 76.1181 361.793 73.2158 360.595 71.857C360.595 71.857 362.532 72.8655 363.607 76.4543L364.994 77.316C364.994 77.316 364.104 75.2091 363.791 74.6267C363.479 74.0444 363.612 73.9165 363.612 73.9165C364.604 74.9597 365.288 76.2578 365.586 77.6663C365.586 77.6663 368.299 79.5933 368.436 79.4371Z" fill="#8257E6"/>
<path d="M310.231 112.082C310.231 112.082 310.704 94.0433 298.171 96.5858C298.171 96.5858 295.927 96.2402 294.98 98.295C294.98 98.295 295.927 98.295 295.662 100.118C295.575 100.768 295.566 101.426 295.633 102.078C295.719 102.963 296.093 103.794 296.699 104.445C296.699 104.445 298.957 109.435 307.295 111.13C307.295 111.13 309.147 112.527 309.611 112.451L308.19 109.459C308.19 109.459 306.036 110.567 304.184 109.814C304.184 109.814 308.114 109.582 308.005 109.005C308.005 108.886 307.191 107.447 307.191 107.447C307.191 107.447 303.432 109.364 300.614 108.105C300.614 108.105 305.349 108.46 306.898 106.902L305.577 104.805C305.577 104.805 301.703 107.021 298.436 105.714C298.436 105.714 303.384 105.913 305.259 104.365L303.683 102.471C303.683 102.471 299.862 104.564 297.153 103.456C297.153 103.456 302.892 103.11 303.309 102.064C303.309 102.064 301.756 100.421 301.131 100.17C301.131 100.17 298.356 101.59 296.841 100.823C296.841 100.823 300.629 100.189 300.652 99.7674C300.652 99.7674 298.062 98.1624 296.315 98.044C297.926 98.0728 299.502 98.5234 300.884 99.3508C300.669 98.383 300.175 97.4993 299.464 96.8083C299.464 96.8083 301.268 97.0119 301.514 99.7438C301.514 99.7438 303.488 101.079 303.616 101.448C303.616 101.448 303.754 98.7163 302.963 97.0876C302.963 97.0876 304.705 98.4843 304.052 101.931L305.676 103.797C305.676 103.797 306.045 100.189 305.453 98.6879C305.453 98.6879 307.006 100.388 306.05 104.298L307.362 106.339C307.362 106.339 307.92 103.257 307.622 101.443C307.622 101.443 308.72 103.337 307.717 106.94L308.436 108.408C308.436 108.408 308.801 106.15 308.848 105.492C308.896 104.833 309.076 104.791 309.076 104.791C309.361 106.203 309.247 107.667 308.749 109.019C308.749 109.019 310.023 112.144 310.231 112.082Z" fill="#8257E6"/>
<path opacity="0.1" d="M330.95 341.293C337.992 341.293 343.701 340.329 343.701 339.139C343.701 337.949 337.992 336.985 330.95 336.985C323.908 336.985 318.199 337.949 318.199 339.139C318.199 340.329 323.908 341.293 330.95 341.293Z" fill="#8257E6"/>
<path opacity="0.1" d="M284.469 374C291.511 374 297.22 373.036 297.22 371.846C297.22 370.656 291.511 369.691 284.469 369.691C277.427 369.691 271.718 370.656 271.718 371.846C271.718 373.036 277.427 374 284.469 374Z" fill="#8257E6"/>
<path opacity="0.1" d="M381.182 371.846C388.224 371.846 393.933 370.881 393.933 369.692C393.933 368.502 388.224 367.537 381.182 367.537C374.14 367.537 368.431 368.502 368.431 369.692C368.431 370.881 374.14 371.846 381.182 371.846Z" fill="#8257E6"/>
<path d="M394.459 345.578C404.973 345.578 413.497 344.137 413.497 342.359C413.497 340.581 404.973 339.139 394.459 339.139C383.944 339.139 375.42 340.581 375.42 342.359C375.42 344.137 383.944 345.578 394.459 345.578Z" fill="#8257E6"/>
<path d="M402.351 337.089C403.221 336.383 403.853 335.428 404.165 334.352C404.402 333.263 403.938 331.961 402.901 331.564C401.736 331.119 400.491 331.924 399.544 332.738C398.597 333.552 397.522 334.485 396.286 334.315C396.921 333.738 397.395 333.008 397.664 332.194C397.933 331.38 397.987 330.511 397.82 329.67C397.767 329.322 397.619 328.994 397.394 328.723C396.745 328.032 395.576 328.33 394.799 328.875C392.337 330.607 391.651 333.95 391.637 336.961C391.39 335.877 391.599 334.745 391.594 333.647C391.589 332.549 391.281 331.28 390.339 330.702C389.761 330.38 389.107 330.216 388.445 330.229C387.337 330.191 386.102 330.3 385.349 331.109C384.402 332.113 384.653 333.803 385.467 334.897C386.281 335.991 387.527 336.696 388.673 337.463C389.59 338.011 390.373 338.756 390.964 339.646C391.032 339.77 391.087 339.9 391.13 340.034H398.071C399.625 339.251 401.065 338.261 402.351 337.089V337.089Z" fill="#8257E6"/>
</g>
<defs>
<linearGradient id="paint0_linear" x1="105.582" y1="205.207" x2="253.37" y2="205.207" gradientUnits="userSpaceOnUse">
<stop stop-color="#808080" stop-opacity="0.25"/>
<stop offset="0.54" stop-color="#808080" stop-opacity="0.12"/>
<stop offset="1" stop-color="#808080" stop-opacity="0.1"/>
</linearGradient>
<clipPath id="clip0">
<rect width="478" height="374" fill="white"/>
</clipPath>
</defs>
</svg>
